<svg xmlns="http://www.w3.org/2000/svg" xmlns:xlink="http://www.w3.org/1999/xlink" width="3035" zoomAndPan="magnify" viewBox="0 0 2276.25 2818.499955" height="3758" preserveAspectRatio="xMidYMid meet" version="1.2"><defs><clipPath id="fa7cba2f94"><path d="M 183 506 L 2154 506 L 2154 2475.867188 L 183 2475.867188 Z M 183 506 "/></clipPath><clipPath id="bc27686087"><path d="M 1412 341.898438 L 2275.34375 341.898438 L 2275.34375 1205 L 1412 1205 Z M 1412 341.898438 "/></clipPath></defs><g id="49671458bc"><g clip-rule="nonzero" clip-path="url(#fa7cba2f94)"><path style=" stroke:none;fill-rule:nonzero;fill:#5e20e1;fill-opacity:1;" d="M 1168.46875 506.078125 C 1142.855469 1444.558594 1122.0625 1465.347656 183.585938 1490.960938 C 1122.0625 1516.597656 1142.855469 1537.386719 1168.46875 2475.867188 C 1194.105469 1537.386719 1214.894531 1516.597656 2153.375 1490.960938 C 1214.894531 1465.347656 1194.105469 1444.558594 1168.46875 506.078125 "/></g><path style=" stroke:none;fill-rule:nonzero;fill:#5e20e1;fill-opacity:1;" d="M 284.050781 1657.261719 C 276.652344 1927.921875 270.660156 1933.914062 0 1941.292969 C 270.660156 1948.691406 276.652344 1954.683594 284.050781 2225.34375 C 291.429688 1954.683594 297.421875 1948.691406 568.085938 1941.292969 C 297.421875 1933.914062 291.429688 1927.921875 284.050781 1657.261719 "/><g clip-rule="nonzero" clip-path="url(#bc27686087)"><path style=" stroke:none;fill-rule:nonzero;fill:#5e20e1;fill-opacity:1;" d="M 1843.84375 1204.953125 C 1855.082031 793.769531 1864.179688 784.652344 2275.363281 773.433594 C 1864.179688 762.199219 1855.082031 753.101562 1843.84375 341.917969 C 1832.609375 753.101562 1823.511719 762.199219 1412.328125 773.433594 C 1823.511719 784.652344 1832.609375 793.769531 1843.84375 1204.953125 "/></g></g></svg>