<svg xmlns="http://www.w3.org/2000/svg" xmlns:xlink="http://www.w3.org/1999/xlink" width="1080" zoomAndPan="magnify" viewBox="0 0 810 1020" height="1350" preserveAspectRatio="xMidYMid meet" version="1.2"><defs><clipPath id="0f277eca1e"><path d="M 109.347656 263.886719 L 700.347656 263.886719 L 700.347656 796.386719 L 109.347656 796.386719 Z M 109.347656 263.886719 "/></clipPath></defs><g id="e66b7d837c"><g clip-rule="nonzero" clip-path="url(#0f277eca1e)"><path style=" stroke:none;fill-rule:nonzero;fill:#000000;fill-opacity:1;" d="M 367.582031 263.949219 C 368.335938 263.929688 369.078125 263.917969 369.808594 263.917969 C 378.8125 263.886719 387.753906 264.296875 396.722656 265.207031 C 397.101562 265.238281 397.101562 265.238281 397.507812 265.300781 C 406.101562 266.148438 414.511719 267.5 422.886719 269.667969 C 423.21875 269.75 423.554688 269.832031 423.890625 269.917969 C 436.78125 273.277344 449.171875 279.371094 458.957031 288.507812 C 459.375 288.863281 459.785156 289.21875 460.183594 289.574219 C 461.28125 290.519531 462.316406 291.523438 463.351562 292.527344 C 463.570312 292.746094 463.570312 292.746094 463.820312 293 C 464.195312 293.375 464.574219 293.753906 464.917969 294.160156 C 464.917969 294.371094 464.917969 294.578125 464.917969 294.789062 C 465.230469 294.894531 465.546875 294.996094 465.859375 295.101562 C 466.613281 295.980469 467.300781 296.890625 467.992188 297.804688 C 468.222656 298.054688 468.453125 298.304688 468.683594 298.558594 C 469.625 298.621094 469.625 298.621094 470.4375 298.242188 C 471.789062 297.835938 472.949219 297.835938 474.328125 297.867188 C 474.601562 297.867188 474.871094 297.867188 475.144531 297.867188 C 478.0625 297.898438 480.949219 298.085938 483.832031 298.273438 C 493.808594 298.902344 503.816406 299.152344 513.789062 299.4375 C 515.398438 299.476562 517.019531 299.53125 518.652344 299.59375 C 518.964844 299.59375 519.289062 299.59375 519.625 299.59375 C 524.097656 299.71875 528.574219 299.886719 533.050781 300.09375 C 547.355469 300.722656 561.625 300.816406 575.960938 300.660156 C 577.507812 300.640625 579.066406 300.617188 580.636719 300.597656 C 587.945312 300.535156 595.285156 300.472656 602.59375 300.285156 C 603 300.285156 603 300.285156 603.410156 300.285156 C 606.417969 300.199219 609.429688 300.085938 612.441406 299.9375 C 614.449219 299.8125 616.445312 299.738281 618.433594 299.71875 C 618.933594 299.71875 618.933594 299.71875 619.46875 299.6875 C 620.535156 299.667969 621.601562 299.644531 622.667969 299.625 C 623.023438 299.625 623.390625 299.625 623.765625 299.625 C 634.933594 299.40625 634.933594 299.40625 640.265625 299.5 C 640.664062 299.5 641.058594 299.507812 641.457031 299.53125 C 650.742188 299.6875 659.964844 300.285156 668.496094 304.210938 C 668.707031 304.292969 668.914062 304.386719 669.125 304.492188 C 677.625 308.449219 683.398438 314.226562 688.886719 321.796875 C 689.117188 322.089844 689.335938 322.390625 689.546875 322.707031 C 691.425781 325.3125 692.933594 327.792969 692.996094 331.027344 C 693.152344 332.972656 693.621094 334.671875 694.28125 336.492188 C 697.261719 345 698.894531 353.984375 699.863281 362.933594 C 699.886719 363.183594 699.917969 363.425781 699.960938 363.65625 C 700.210938 366.292969 700.242188 368.898438 700.242188 371.507812 C 700.242188 371.757812 700.25 372.007812 700.273438 372.257812 C 700.273438 374.25 700.273438 376.226562 700.273438 378.195312 C 700.273438 378.488281 700.273438 378.78125 700.273438 379.074219 C 700.304688 392.953125 699.800781 406.804688 699.269531 420.652344 C 698.828125 431.957031 698.578125 443.230469 698.453125 454.503906 C 698.296875 465.808594 698.078125 477.113281 697.859375 488.417969 C 697.816406 490.597656 697.785156 492.773438 697.761719 494.949219 C 697.722656 497.128906 697.679688 499.296875 697.636719 501.453125 C 697.597656 502.707031 697.566406 503.972656 697.542969 505.25 C 697.449219 510.683594 697.324219 516.148438 697.105469 521.582031 C 696.789062 525.347656 696.789062 525.347656 697.355469 528.992188 C 698.703125 533.355469 697.667969 539.324219 697.542969 543.90625 C 697.355469 549.152344 697.292969 554.398438 697.261719 559.640625 C 697.242188 562.132812 697.21875 564.613281 697.199219 567.082031 C 697.179688 567.355469 697.167969 567.628906 697.167969 567.898438 C 697.011719 585.328125 696.726562 602.726562 695.789062 620.15625 C 695.722656 621.472656 695.660156 622.78125 695.597656 624.078125 C 695.578125 624.414062 695.558594 624.75 695.535156 625.085938 C 694.972656 635.417969 694.65625 645.746094 694.3125 656.109375 C 694.292969 656.59375 694.28125 657.074219 694.28125 657.554688 C 694.238281 658.726562 694.199219 659.898438 694.15625 661.074219 C 694.136719 661.761719 694.113281 662.453125 694.09375 663.144531 C 694.074219 663.375 694.0625 663.605469 694.0625 663.835938 C 694.042969 664.277344 694.019531 664.726562 694 665.1875 C 693.957031 666.296875 693.925781 667.40625 693.90625 668.515625 C 693.75 672.941406 693.589844 677.402344 693.402344 681.828125 C 693.382812 682.1875 693.371094 682.550781 693.371094 682.929688 C 693.289062 684.5625 693.214844 686.195312 693.152344 687.828125 C 692.652344 693.449219 692.652344 693.449219 693.277344 698.945312 C 693.320312 699.636719 693.351562 700.316406 693.371094 700.984375 C 693.371094 701.195312 693.382812 701.414062 693.402344 701.644531 C 693.425781 702.355469 693.445312 703.078125 693.464844 703.8125 C 693.464844 704.0625 693.464844 704.324219 693.464844 704.597656 C 693.75 716.71875 693.96875 728.902344 693.183594 740.992188 C 693.164062 741.285156 693.140625 741.578125 693.121094 741.871094 C 692.910156 745.035156 692.609375 748.183594 692.210938 751.324219 C 692.167969 751.597656 692.128906 751.878906 692.085938 752.171875 C 690.894531 760.871094 685.625 768.910156 678.847656 774.3125 C 671.507812 779.523438 662.539062 781 653.878906 782.632812 C 653.671875 782.675781 653.460938 782.71875 653.253906 782.757812 C 649.738281 783.386719 646.257812 783.859375 642.710938 784.078125 C 642.273438 784.121094 641.84375 784.152344 641.425781 784.171875 C 640.546875 784.257812 639.660156 784.328125 638.761719 784.390625 C 636.4375 784.558594 634.105469 784.726562 631.765625 784.894531 C 631.535156 784.914062 631.304688 784.9375 631.074219 784.957031 C 626.640625 785.292969 622.207031 785.691406 617.773438 786.152344 C 609.242188 787.03125 600.679688 787.34375 592.148438 787.6875 C 591.625 787.710938 591.101562 787.730469 590.578125 787.753906 C 578.785156 788.191406 566.988281 788.441406 555.195312 788.441406 C 540.546875 788.378906 526.023438 789.007812 511.40625 789.949219 C 488.695312 791.394531 466.015625 792.023438 443.273438 792.367188 C 442.835938 792.367188 442.40625 792.367188 441.988281 792.367188 C 440.691406 792.390625 439.394531 792.410156 438.097656 792.429688 C 437.867188 792.429688 437.648438 792.429688 437.441406 792.429688 C 436.769531 792.453125 436.113281 792.460938 435.464844 792.460938 C 435.234375 792.460938 435.015625 792.460938 434.804688 792.460938 C 433.695312 792.484375 432.589844 792.503906 431.480469 792.523438 C 417.394531 792.714844 403.28125 793.027344 389.195312 793.46875 C 378.25 793.8125 378.25 793.8125 373.355469 793.875 C 373 793.875 372.632812 793.875 372.257812 793.875 C 370.84375 793.875 369.621094 793.875 368.304688 793.308594 C 366.609375 792.589844 364.855469 792.714844 363.035156 792.714844 C 362.660156 792.714844 362.273438 792.714844 361.875 792.714844 C 360.828125 792.714844 359.78125 792.722656 358.738281 792.746094 C 358.066406 792.746094 357.410156 792.746094 356.761719 792.746094 C 350.109375 792.777344 343.492188 792.964844 336.875 793.40625 C 333.613281 793.632812 330.347656 793.855469 327.085938 794.0625 C 326.667969 794.085938 326.25 794.105469 325.832031 794.125 C 317.332031 794.691406 308.863281 795.070312 300.363281 795.414062 C 300.027344 795.433594 299.703125 795.445312 299.390625 795.445312 C 295.207031 795.613281 291.035156 795.78125 286.875 795.949219 C 286.183594 795.96875 285.484375 796 284.773438 796.042969 C 278.308594 796.292969 271.847656 796.355469 265.386719 796.386719 C 265.136719 796.386719 264.863281 796.386719 264.570312 796.386719 C 252.621094 796.386719 240.667969 796.074219 228.6875 795.726562 C 226.742188 795.6875 224.796875 795.632812 222.851562 795.570312 C 222.476562 795.570312 222.085938 795.5625 221.691406 795.539062 C 213.410156 795.320312 205.128906 795.195312 196.816406 795.132812 C 182.417969 795.007812 182.417969 795.007812 176.457031 794.191406 C 176.039062 794.148438 175.632812 794.09375 175.234375 794.03125 C 163.816406 792.429688 153.121094 787.972656 145.78125 778.769531 C 144.777344 777.453125 143.929688 776.070312 143.082031 774.625 C 142.957031 774.394531 142.820312 774.164062 142.675781 773.933594 C 141.074219 771.171875 139.726562 768.34375 138.722656 765.296875 C 138.636719 765.046875 138.542969 764.785156 138.441406 764.515625 C 138.1875 763.699219 137.96875 762.878906 137.75 762.0625 C 137.664062 761.769531 137.582031 761.46875 137.5 761.152344 C 136.527344 757.039062 136.496094 752.800781 136.339844 748.5625 C 136.296875 747.683594 136.253906 746.792969 136.210938 745.890625 C 135.992188 741.210938 135.835938 736.535156 135.742188 731.824219 C 135.679688 727.867188 135.429688 723.972656 134.988281 720.046875 C 134.394531 714.675781 133.984375 709.277344 133.671875 703.875 C 133.652344 703.664062 133.640625 703.445312 133.640625 703.214844 C 133.328125 698.003906 133.035156 692.777344 132.761719 687.546875 C 132.742188 687.335938 132.730469 687.105469 132.730469 686.855469 C 132.605469 684.761719 132.488281 682.65625 132.386719 680.542969 C 132.070312 674.511719 131.726562 668.492188 131.351562 662.484375 C 131.320312 662.015625 131.320312 662.015625 131.289062 661.542969 C 131.003906 657.335938 131.003906 657.335938 130.722656 653.128906 C 129.34375 631.960938 128.496094 610.765625 128.027344 589.566406 C 127.984375 587.558594 127.941406 585.546875 127.898438 583.539062 C 127.898438 583.246094 127.898438 582.941406 127.898438 582.628906 C 127.878906 582.042969 127.859375 581.457031 127.835938 580.871094 C 127.753906 577.078125 127.671875 573.300781 127.585938 569.53125 C 127.480469 563.796875 127.355469 558.070312 127.210938 552.355469 C 126.769531 535.679688 126.707031 519.035156 126.707031 502.363281 C 126.707031 501.523438 126.707031 500.675781 126.707031 499.816406 C 126.707031 474.601562 126.707031 474.601562 127.085938 463.734375 C 127.085938 463.464844 127.09375 463.179688 127.117188 462.886719 C 127.261719 458.847656 127.417969 454.808594 127.585938 450.765625 C 127.648438 449.511719 127.703125 448.253906 127.742188 447 C 127.992188 440.53125 128.308594 434.09375 128.808594 427.6875 C 128.832031 427.433594 128.851562 427.195312 128.871094 426.964844 C 129.5625 417.980469 130.535156 408.53125 134.707031 400.429688 C 135.144531 399.546875 135.523438 398.699219 135.867188 397.789062 C 135.679688 397.582031 135.480469 397.359375 135.269531 397.128906 C 128.558594 389.4375 126.832031 379.796875 127.398438 369.839844 C 127.742188 366.324219 128.714844 362.617188 130.847656 359.792969 C 129.5 359.792969 128.527344 360.136719 127.273438 360.609375 C 126.8125 360.777344 126.351562 360.953125 125.890625 361.144531 C 125.160156 361.414062 124.4375 361.6875 123.726562 361.960938 C 120.527344 363.183594 117.328125 364.378906 113.910156 363.246094 C 113.910156 363.039062 113.910156 362.828125 113.910156 362.617188 C 113.492188 362.410156 113.074219 362.199219 112.65625 361.992188 C 112.65625 361.78125 112.65625 361.570312 112.65625 361.363281 C 112.339844 361.257812 112.027344 361.152344 111.714844 361.046875 C 111.367188 359.980469 111.335938 359.101562 111.335938 357.941406 C 111.316406 357.5625 111.304688 357.175781 111.304688 356.777344 C 111.496094 354.894531 112.5 353.792969 113.910156 352.570312 C 114.820312 352.097656 115.761719 351.785156 116.703125 351.4375 C 116.972656 351.355469 117.246094 351.261719 117.515625 351.15625 C 118.082031 350.96875 118.644531 350.769531 119.210938 350.558594 C 120.070312 350.265625 120.925781 349.964844 121.785156 349.648438 C 122.328125 349.460938 122.882812 349.273438 123.445312 349.085938 C 123.695312 349 123.949219 348.90625 124.199219 348.800781 C 124.449219 348.71875 124.699219 348.632812 124.953125 348.550781 C 125.160156 348.488281 125.371094 348.414062 125.578125 348.332031 C 126.144531 348.171875 126.144531 348.171875 127.085938 348.171875 C 127.023438 347.878906 126.949219 347.578125 126.863281 347.261719 C 126.78125 346.863281 126.699219 346.46875 126.613281 346.070312 C 126.53125 345.671875 126.445312 345.273438 126.363281 344.875 C 126.144531 343.777344 126.144531 343.777344 126.144531 342.519531 C 125.789062 342.605469 125.433594 342.699219 125.078125 342.804688 C 114.976562 345.03125 114.976562 345.03125 112.152344 343.242188 C 111.777344 342.867188 111.777344 342.867188 111.398438 342.519531 C 111.171875 342.3125 110.941406 342.101562 110.710938 341.894531 C 109.394531 340.417969 109.394531 339.097656 109.425781 337.183594 C 109.613281 335.488281 110.300781 334.542969 111.496094 333.320312 C 113.691406 331.96875 116.542969 331.90625 119.054688 331.5625 C 119.703125 331.476562 120.359375 331.394531 121.03125 331.308594 C 123.039062 331.058594 125.046875 330.808594 127.085938 330.902344 C 127.125 330.691406 127.167969 330.472656 127.210938 330.242188 C 129.09375 321.828125 134.203125 315.703125 140.574219 310.175781 C 140.78125 310.070312 140.992188 309.964844 141.199219 309.863281 C 141.417969 309.203125 141.417969 309.203125 141.546875 308.386719 C 141.609375 308.09375 141.671875 307.777344 141.734375 307.445312 C 141.796875 307.128906 141.859375 306.792969 141.921875 306.4375 C 143.425781 298.964844 145.371094 291.773438 149.042969 285.054688 C 149.148438 284.863281 149.25 284.667969 149.355469 284.457031 C 152.117188 279.273438 156.164062 273.84375 161.589844 271.234375 C 161.859375 271.089844 162.132812 270.941406 162.40625 270.796875 C 167.707031 268.191406 174.292969 267.75 179.910156 269.539062 C 183.203125 270.828125 186.214844 272.335938 188.878906 274.691406 C 189.109375 274.878906 189.339844 275.066406 189.570312 275.253906 C 191.890625 277.171875 194.242188 279.746094 195.464844 282.542969 C 196.691406 282.039062 197.472656 281.253906 198.414062 280.3125 C 203.433594 275.601562 210.085938 272.273438 217.046875 272.335938 C 222.191406 272.523438 226.710938 274.816406 230.285156 278.457031 C 234.363281 283.042969 234.363281 283.042969 234.363281 284.738281 C 234.574219 284.675781 234.792969 284.601562 235.023438 284.519531 C 252.210938 279.242188 269.714844 275.035156 287.375 271.550781 C 287.667969 271.488281 287.960938 271.425781 288.253906 271.363281 C 301.460938 268.785156 314.757812 266.871094 328.152344 265.582031 C 328.382812 265.5625 328.613281 265.542969 328.84375 265.519531 C 341.734375 264.296875 354.660156 263.949219 367.582031 263.949219 Z M 331.886719 282.949219 C 331.550781 282.96875 331.207031 283 330.851562 283.042969 C 323.667969 283.734375 316.484375 284.613281 309.332031 285.679688 C 309.082031 285.722656 308.820312 285.765625 308.546875 285.808594 C 286.308594 289.105469 264.226562 294.222656 242.675781 300.660156 C 242.445312 300.722656 242.214844 300.796875 241.984375 300.878906 C 240.824219 301.226562 240.824219 301.226562 239.695312 301.695312 C 239.714844 302.03125 239.738281 302.378906 239.757812 302.734375 C 240.386719 314.039062 240.386719 314.039062 240.417969 317.679688 C 240.417969 318.027344 240.417969 318.027344 240.417969 318.371094 C 240.386719 320.003906 240.101562 321.480469 239.695312 323.050781 C 239.488281 323.050781 239.277344 323.050781 239.066406 323.050781 C 238.734375 323.492188 238.421875 323.941406 238.128906 324.402344 C 236.902344 326.003906 235.710938 326.695312 233.734375 327.132812 C 231.257812 327.449219 229 327.195312 226.835938 325.878906 C 226.207031 325.28125 225.769531 324.714844 225.265625 323.992188 C 225.097656 323.847656 224.933594 323.699219 224.765625 323.554688 C 223.351562 321.921875 223.226562 320.003906 223.164062 317.964844 C 223.164062 317.691406 223.152344 317.410156 223.132812 317.117188 C 223.113281 316.238281 223.082031 315.367188 223.039062 314.507812 C 222.945312 311.117188 222.820312 307.757812 222.441406 304.429688 C 222.421875 304.179688 222.402344 303.9375 222.378906 303.707031 C 221.847656 298.808594 220.46875 294.097656 217.109375 290.390625 C 216.390625 289.984375 216.390625 289.984375 215.542969 290.078125 C 210.867188 291.835938 207.074219 296.042969 204.0625 299.8125 C 202.964844 301.195312 201.804688 302.546875 200.671875 303.894531 C 200.191406 304.460938 199.710938 305.027344 199.230469 305.589844 C 197.820312 307.316406 196.1875 308.824219 193.898438 309.234375 C 191.074219 309.484375 188.285156 309.296875 186.023438 307.414062 C 184.113281 305.402344 183.578125 303.425781 183.265625 300.722656 C 182.699219 295.917969 180.941406 291.207031 177.273438 287.878906 C 175.640625 286.75 174.011719 286.027344 172.003906 286.183594 C 169.398438 286.6875 167.800781 288.320312 166.292969 290.390625 C 162.183594 296.515625 160.273438 303.582031 159.078125 310.773438 C 159.015625 311.085938 158.964844 311.402344 158.921875 311.714844 C 158.816406 312.28125 158.722656 312.855469 158.640625 313.441406 C 158.140625 316.613281 156.945312 318.9375 154.375 320.851562 C 153.777344 321.417969 153.214844 322.015625 152.679688 322.644531 C 151.644531 323.867188 150.609375 324.902344 149.386719 325.941406 C 145.78125 329.113281 144.023438 333.570312 143.457031 338.25 C 143.175781 343.398438 145.121094 347.765625 148.414062 351.628906 C 148.9375 352.152344 149.460938 352.675781 149.984375 353.199219 C 150.214844 353.429688 150.441406 353.648438 150.671875 353.859375 C 156.820312 359.636719 164.789062 362.648438 172.882812 364.503906 C 173.113281 364.566406 173.339844 364.617188 173.570312 364.660156 C 185.242188 367.234375 200.578125 366.292969 210.867188 359.917969 C 212.089844 359.101562 213.191406 358.253906 214.289062 357.28125 C 214.183594 357.09375 214.089844 356.894531 214.003906 356.683594 C 213.316406 355.332031 213.316406 354.203125 213.316406 352.695312 C 213.316406 352.445312 213.324219 352.183594 213.347656 351.910156 C 213.347656 351.304688 213.347656 350.6875 213.347656 350.058594 C 213.554688 350.058594 213.765625 350.058594 213.972656 350.058594 C 214.226562 349.765625 214.476562 349.460938 214.726562 349.148438 C 215.542969 348.171875 215.542969 348.171875 216.484375 347.859375 C 219.117188 347.703125 221.535156 347.734375 224.074219 348.550781 C 225.421875 348.925781 226.773438 349.019531 228.152344 349.148438 C 229.25 349.398438 230.003906 349.742188 231.007812 350.277344 C 233.328125 351.503906 235.742188 352.160156 238.222656 352.882812 C 242.519531 354.078125 246.753906 355.394531 250.925781 356.996094 C 251.28125 357.144531 251.65625 357.289062 252.054688 357.4375 C 256.289062 359.101562 256.289062 359.101562 257.605469 361.300781 C 258.296875 362.933594 258.078125 364.878906 257.511719 366.511719 C 256.539062 367.925781 255.757812 368.648438 254.125 369.214844 C 251.585938 369.558594 249.546875 368.929688 247.222656 367.957031 C 246.660156 367.726562 246.085938 367.496094 245.5 367.265625 C 245.121094 367.078125 245.121094 367.078125 244.746094 366.921875 C 244.054688 366.636719 244.054688 366.636719 243.144531 366.703125 C 243.25 367.078125 243.355469 367.453125 243.460938 367.832031 C 244.496094 372.667969 243.304688 377.628906 242.519531 382.402344 C 243.816406 382.613281 245.113281 382.8125 246.410156 383 C 246.941406 383.0625 246.941406 383.0625 247.476562 383.15625 C 254.375 384.160156 261.277344 384.414062 268.242188 384.382812 C 268.910156 384.382812 269.570312 384.382812 270.214844 384.382812 C 278.371094 384.382812 286.464844 384.097656 294.589844 383.34375 C 294.839844 383.324219 295.089844 383.304688 295.34375 383.28125 C 311.558594 381.773438 327.808594 379.136719 343.835938 376.246094 C 346.285156 375.808594 348.730469 375.398438 351.179688 374.992188 C 365.105469 372.636719 365.105469 372.636719 378.96875 369.90625 C 379.285156 369.808594 379.285156 369.808594 379.597656 369.746094 C 380.183594 369.644531 380.769531 369.527344 381.355469 369.402344 C 382.453125 369.214844 383.519531 369.152344 384.648438 369.152344 C 386.96875 368.992188 388.570312 368.113281 390.480469 366.828125 C 391.359375 366.292969 392.238281 365.820312 393.148438 365.320312 C 396.628906 363.53125 396.628906 363.53125 399.078125 360.609375 C 399.390625 359.007812 399.234375 357.4375 399.078125 355.835938 C 399.046875 354.609375 399.328125 353.574219 399.734375 352.414062 C 399.796875 352.203125 399.871094 351.996094 399.953125 351.785156 C 402.902344 343.558594 408.363281 338.722656 415.953125 334.828125 C 418.554688 333.664062 421.160156 333.726562 423.824219 334.671875 C 423.667969 335.988281 422.980469 336.523438 422.039062 337.402344 C 419.9375 339.476562 418.585938 341.609375 417.332031 344.28125 C 417.175781 344.5625 417.175781 344.5625 417.050781 344.84375 C 415.734375 347.703125 415.578125 350.246094 415.609375 353.324219 C 415.585938 353.699219 415.578125 354.078125 415.578125 354.453125 C 415.578125 356.902344 415.828125 359.039062 416.613281 361.363281 C 416.820312 361.363281 417.03125 361.363281 417.238281 361.363281 C 417.34375 361.78125 417.449219 362.199219 417.550781 362.617188 C 417.761719 362.617188 417.972656 362.617188 418.179688 362.617188 C 418.179688 362.828125 418.179688 363.039062 418.179688 363.246094 C 419.558594 364.03125 420.785156 364.378906 422.320312 364.628906 C 424.515625 365.101562 426.554688 366.105469 428.59375 366.984375 C 428.84375 367.089844 429.097656 367.203125 429.347656 367.328125 C 430.851562 367.988281 432.328125 368.679688 433.332031 370.09375 C 433.675781 371.128906 433.738281 372.195312 433.863281 373.296875 C 433.65625 373.296875 433.445312 373.296875 433.238281 373.296875 C 433.238281 373.714844 433.238281 374.132812 433.238281 374.550781 C 433.027344 374.550781 432.816406 374.550781 432.609375 374.550781 C 432.609375 374.761719 432.609375 374.96875 432.609375 375.179688 C 432.398438 375.179688 432.191406 375.179688 431.980469 375.179688 C 431.980469 375.390625 431.980469 375.597656 431.980469 375.808594 C 429.691406 376.375 428.09375 376.058594 426.023438 375.085938 C 420.65625 372.574219 415.324219 373.171875 409.835938 375.117188 C 409 375.410156 408.164062 375.722656 407.328125 376.058594 C 406.261719 376.4375 406.261719 376.4375 405.195312 376.5 C 403.78125 376.8125 403.28125 377.472656 402.464844 378.601562 C 402.339844 378.792969 402.214844 378.980469 402.089844 379.167969 C 401.691406 379.710938 401.304688 380.265625 400.925781 380.832031 C 400.71875 381.125 400.519531 381.417969 400.332031 381.710938 C 399.296875 383.3125 398.699219 384.570312 398.730469 386.484375 C 398.984375 387.332031 398.984375 387.332031 399.671875 388.054688 C 399.820312 388.222656 399.976562 388.402344 400.144531 388.589844 C 402.527344 390.914062 405.945312 391.070312 409.082031 391.507812 C 409.585938 391.605469 409.585938 391.605469 410.117188 391.667969 C 411.339844 391.824219 412.503906 391.886719 413.726562 391.886719 C 413.957031 391.886719 414.1875 391.886719 414.414062 391.886719 C 415.148438 391.886719 415.890625 391.898438 416.644531 391.917969 C 416.894531 391.917969 417.144531 391.917969 417.394531 391.917969 C 421.472656 391.886719 425.457031 391.699219 429.472656 390.882812 C 429.722656 390.839844 429.972656 390.789062 430.226562 390.722656 C 439.007812 388.871094 446.851562 384.476562 453.3125 378.320312 C 453.585938 378.046875 453.867188 377.777344 454.160156 377.503906 C 461.4375 370.46875 466.394531 361.238281 466.800781 351 C 466.769531 348.957031 466.675781 346.917969 466.550781 344.90625 C 466.527344 344.613281 466.507812 344.332031 466.488281 344.058594 C 466.425781 342.65625 466.351562 341.265625 466.265625 339.882812 C 466.183594 338.710938 466.121094 337.546875 466.078125 336.398438 C 465.859375 332.347656 464.667969 328.953125 463.035156 325.25 C 462.910156 324.976562 462.796875 324.703125 462.691406 324.433594 C 459.960938 318.058594 456.824219 312.058594 452.371094 306.722656 C 452.160156 306.429688 451.941406 306.136719 451.710938 305.84375 C 451.523438 305.613281 451.324219 305.382812 451.117188 305.152344 C 450.90625 305.152344 450.699219 305.152344 450.488281 305.152344 C 450.382812 304.835938 450.28125 304.523438 450.175781 304.210938 C 449.964844 304.210938 449.757812 304.210938 449.546875 304.210938 C 449.546875 304 449.546875 303.789062 449.546875 303.582031 C 449.109375 303.109375 449.109375 303.109375 448.542969 302.640625 C 448.167969 302.355469 448.167969 302.355469 447.824219 302.042969 C 447.570312 301.832031 447.308594 301.613281 447.039062 301.382812 C 446.765625 301.152344 446.484375 300.910156 446.191406 300.660156 C 443.777344 298.589844 441.265625 296.765625 438.570312 295.101562 C 438.359375 294.976562 438.152344 294.851562 437.941406 294.726562 C 426.335938 287.628906 412.785156 284.863281 399.484375 283.261719 C 399.234375 283.242188 398.984375 283.210938 398.730469 283.167969 C 396.753906 282.949219 394.746094 282.730469 392.773438 282.542969 C 392.175781 282.476562 392.175781 282.476562 391.578125 282.414062 C 383.550781 281.597656 375.582031 281.472656 367.550781 281.503906 C 366.296875 281.503906 365.042969 281.503906 363.789062 281.503906 C 353.121094 281.472656 342.519531 281.882812 331.886719 282.949219 Z M 478.09375 315.828125 C 478.25 316.238281 478.25 316.238281 478.40625 316.644531 C 478.929688 318.046875 479.453125 319.449219 479.976562 320.851562 C 480.101562 321.1875 480.226562 321.535156 480.351562 321.890625 C 480.789062 323.039062 481.21875 324.191406 481.636719 325.34375 C 481.785156 325.699219 481.929688 326.078125 482.078125 326.472656 C 482.203125 326.808594 482.328125 327.164062 482.453125 327.542969 C 482.640625 328.011719 482.640625 328.011719 482.828125 328.484375 C 483.238281 329.707031 483.457031 330.714844 483.457031 332.03125 C 483.4375 332.324219 483.425781 332.617188 483.425781 332.910156 C 483.425781 333.351562 483.425781 333.351562 483.425781 333.824219 C 483.394531 336.273438 483.457031 338.722656 483.582031 341.203125 C 484.398438 358.128906 481.605469 373.042969 469.875 386.078125 C 469.078125 386.957031 468.265625 387.824219 467.425781 388.683594 C 467.238281 388.894531 467.039062 389.101562 466.832031 389.3125 C 462.628906 393.675781 458.238281 397.257812 453 400.300781 C 452.789062 400.429688 452.582031 400.554688 452.371094 400.679688 C 441.707031 406.804688 429.847656 409.15625 417.648438 409.15625 C 416.851562 409.15625 416.058594 409.15625 415.261719 409.15625 C 410.652344 409.1875 406.164062 408.84375 401.679688 407.621094 C 401.386719 407.535156 401.085938 407.453125 400.769531 407.367188 C 396.285156 406.113281 391.328125 404.195312 387.972656 400.835938 C 387.5 400.238281 387.5 400.238281 386.8125 400.300781 C 386.6875 400.019531 386.6875 400.019531 386.5625 399.738281 C 386.183594 399.046875 385.777344 398.511719 385.304688 397.914062 C 382.921875 394.777344 381.855469 391.226562 381.164062 387.425781 C 379.378906 387.648438 377.621094 387.898438 375.832031 388.242188 C 375.5625 388.285156 375.289062 388.328125 375.015625 388.371094 C 374.433594 388.472656 373.847656 388.578125 373.261719 388.683594 C 371.671875 388.976562 370.082031 389.269531 368.492188 389.5625 C 368.160156 389.605469 367.824219 389.65625 367.488281 389.71875 C 362.636719 390.597656 357.777344 391.457031 352.902344 392.292969 C 351.0625 392.609375 349.210938 392.933594 347.351562 393.269531 C 338.503906 394.839844 329.597656 396.1875 320.6875 397.476562 C 319.808594 397.601562 318.941406 397.726562 318.085938 397.851562 C 309.710938 399.046875 301.300781 400.175781 292.832031 400.773438 C 292.058594 400.816406 291.273438 400.867188 290.480469 400.929688 C 283.328125 401.433594 276.175781 401.621094 268.992188 401.621094 C 268.636719 401.621094 268.273438 401.621094 267.894531 401.621094 C 257.449219 401.589844 246.785156 401.308594 236.558594 398.921875 C 235.679688 398.730469 234.925781 398.667969 234.050781 398.730469 C 233.421875 399.203125 233.421875 399.203125 232.890625 399.800781 C 231.886719 400.898438 231.886719 400.898438 231.226562 401.246094 C 231.226562 401.453125 231.226562 401.664062 231.226562 401.871094 C 231.058594 401.933594 230.902344 402.007812 230.753906 402.09375 C 229.910156 402.53125 229.125 403.035156 228.339844 403.566406 C 220.5 408.65625 211.558594 410.757812 202.242188 408.90625 C 196.21875 407.589844 190.320312 405.167969 185.742188 400.929688 C 185.636719 400.722656 185.535156 400.511719 185.429688 400.300781 C 185.21875 400.300781 185.011719 400.300781 184.800781 400.300781 C 184.71875 400.136719 184.632812 399.957031 184.550781 399.769531 C 184.113281 398.953125 183.640625 398.230469 183.109375 397.445312 C 182.917969 397.195312 182.730469 396.921875 182.542969 396.628906 C 182.074219 396.03125 181.601562 395.496094 181.039062 394.964844 C 180.871094 395.214844 180.703125 395.476562 180.535156 395.75 C 176.707031 401.558594 171.753906 405.515625 164.882812 407.023438 C 163.09375 407.335938 161.339844 407.335938 159.519531 407.304688 C 158.984375 407.273438 158.984375 407.273438 158.453125 407.273438 C 156.132812 407.273438 153.839844 407.117188 151.550781 406.898438 C 144.054688 415.972656 145.78125 435.128906 145.277344 446.464844 C 145.257812 447.09375 145.226562 447.730469 145.183594 448.378906 C 144.648438 460.910156 144.148438 473.410156 144.054688 485.96875 C 144.035156 487.332031 144.011719 488.691406 143.992188 490.050781 C 143.679688 518.378906 144.492188 546.734375 145.152344 575.089844 C 145.234375 578.503906 145.320312 581.90625 145.402344 585.296875 C 145.9375 610.261719 147.066406 635.164062 148.726562 660.066406 C 149.292969 668.734375 149.761719 677.402344 150.203125 686.070312 C 150.609375 693.984375 151.082031 701.863281 151.675781 709.777344 C 152.148438 715.460938 152.398438 721.179688 152.554688 726.894531 C 152.648438 729.96875 152.867188 732.890625 153.558594 735.90625 C 153.746094 736.910156 153.808594 737.789062 153.746094 738.828125 C 153.640625 738.929688 153.539062 739.035156 153.433594 739.140625 C 153.433594 740.125 153.453125 741.109375 153.496094 742.09375 C 153.515625 742.386719 153.539062 742.6875 153.558594 743.003906 C 153.578125 743.652344 153.601562 744.289062 153.621094 744.917969 C 153.664062 745.882812 153.707031 746.84375 153.746094 747.808594 C 154.0625 755.878906 155.597656 763.792969 161.402344 769.820312 C 165.636719 773.621094 170.402344 775.222656 175.957031 776.289062 C 176.300781 776.351562 176.300781 776.351562 176.707031 776.414062 C 182.542969 777.421875 188.441406 777.546875 194.367188 777.640625 C 195.121094 777.640625 195.875 777.652344 196.628906 777.671875 C 198.238281 777.691406 199.835938 777.714844 201.425781 777.734375 C 205.609375 777.796875 209.792969 777.859375 213.972656 777.921875 C 214.390625 777.921875 214.808594 777.933594 215.226562 777.953125 C 221.816406 778.039062 228.394531 778.183594 234.960938 778.394531 C 241.515625 778.582031 248.070312 778.769531 254.625 778.894531 C 255.402344 778.917969 256.175781 778.9375 256.949219 778.960938 C 269.308594 779.210938 281.632812 778.675781 293.960938 778.175781 C 294.964844 778.132812 295.960938 778.089844 296.941406 778.046875 C 305.601562 777.671875 314.257812 777.292969 322.914062 776.761719 C 323.207031 776.738281 323.5 776.71875 323.792969 776.699219 C 325.570312 776.59375 327.347656 776.476562 329.125 776.351562 C 338.722656 775.597656 348.261719 775.410156 357.890625 775.378906 C 360.921875 775.359375 363.964844 775.335938 367.019531 775.316406 C 368.042969 775.316406 369.078125 775.316406 370.125 775.316406 C 373.917969 775.285156 377.714844 775.191406 381.511719 775.003906 C 383.328125 774.917969 385.160156 774.875 387 774.875 C 387.292969 774.875 387.585938 774.875 387.878906 774.875 C 388.316406 774.875 388.316406 774.875 388.757812 774.875 C 389.007812 774.875 389.257812 774.875 389.507812 774.875 C 390.261719 774.941406 390.261719 774.941406 391.140625 775.253906 C 392.332031 775.628906 393.398438 775.660156 394.621094 775.628906 C 394.851562 775.628906 395.09375 775.628906 395.34375 775.628906 C 395.867188 775.628906 396.390625 775.628906 396.914062 775.628906 C 397.664062 775.628906 398.417969 775.628906 399.171875 775.628906 C 402.652344 775.628906 406.132812 775.535156 409.585938 775.441406 C 415.671875 775.285156 421.722656 775.191406 427.777344 775.097656 C 428.238281 775.097656 428.6875 775.097656 429.128906 775.097656 C 430.945312 775.074219 432.765625 775.042969 434.585938 775.003906 C 460.214844 774.6875 485.777344 773.996094 519.152344 771.894531 C 519.550781 771.871094 519.949219 771.851562 520.34375 771.832031 C 521.035156 771.769531 521.734375 771.714844 522.449219 771.671875 C 528.53125 771.296875 534.585938 771.140625 540.671875 771.109375 C 541.863281 771.085938 543.054688 771.078125 544.25 771.078125 C 547.636719 771.054688 551.011719 771.035156 554.378906 771.015625 C 576.996094 770.921875 599.582031 770.199219 622.074219 768.09375 C 622.949219 768.011719 623.828125 767.925781 624.707031 767.84375 C 625.019531 767.8125 625.019531 767.8125 625.367188 767.78125 C 628.941406 767.464844 632.550781 767.183594 636.15625 766.933594 C 643.089844 766.492188 649.863281 765.519531 656.671875 764.136719 C 656.878906 764.09375 657.101562 764.042969 657.328125 763.980469 C 664.542969 762.628906 664.542969 762.628906 670.097656 758.265625 C 670.691406 757.132812 671.164062 756.035156 671.632812 754.839844 C 671.757812 754.570312 671.882812 754.285156 672.011719 753.992188 C 674.613281 747.179688 675.179688 738.230469 675.085938 730.976562 C 674.875 730.976562 674.667969 730.976562 674.457031 730.976562 C 674.488281 730.472656 674.488281 730.472656 674.519531 730.003906 C 674.738281 726.800781 674.832031 723.628906 674.863281 720.425781 C 674.863281 719.941406 674.875 719.460938 674.894531 718.980469 C 674.894531 717.996094 674.90625 717 674.925781 715.996094 C 674.949219 714.738281 674.96875 713.484375 674.988281 712.226562 C 674.988281 710.992188 675 709.769531 675.023438 708.554688 C 675.023438 708.324219 675.023438 708.09375 675.023438 707.863281 C 675.042969 707.214844 675.054688 706.566406 675.054688 705.917969 C 675.054688 705.707031 675.054688 705.488281 675.054688 705.257812 C 675.074219 704.167969 675.085938 703.070312 675.085938 701.960938 C 675.085938 701.730469 675.085938 701.5 675.085938 701.269531 C 675.0625 700.621094 675.054688 699.980469 675.054688 699.351562 C 675.054688 697.972656 675.210938 696.589844 675.304688 695.207031 C 675.460938 693.636719 675.492188 692.066406 675.554688 690.496094 C 675.585938 689.996094 675.585938 689.996094 675.617188 689.429688 C 675.660156 688.277344 675.699219 687.117188 675.742188 685.945312 C 675.765625 685.105469 675.796875 684.28125 675.835938 683.464844 C 675.921875 681.472656 675.992188 679.484375 676.058594 677.496094 C 676.121094 675.863281 676.183594 674.242188 676.246094 672.628906 C 676.746094 659.472656 676.746094 659.472656 677.21875 646.3125 C 677.238281 646.042969 677.25 645.757812 677.25 645.464844 C 677.332031 643.121094 677.414062 640.765625 677.5 638.398438 C 677.707031 631.890625 677.980469 625.378906 678.316406 618.867188 C 679.003906 605.050781 679.632812 591.296875 679.601562 577.445312 C 679.601562 577.152344 679.601562 576.859375 679.601562 576.566406 C 679.570312 570.851562 679.507812 565.105469 679.320312 559.390625 C 679.003906 548.304688 679.160156 537.21875 679.507812 526.132812 C 680.007812 510.589844 680.324219 495.046875 680.605469 479.5 C 680.605469 478.683594 680.617188 477.855469 680.636719 477.019531 C 680.699219 473.542969 680.761719 470.078125 680.824219 466.625 C 680.84375 466.101562 680.855469 465.578125 680.855469 465.054688 C 680.949219 459.683594 681.042969 454.285156 681.105469 448.914062 C 681.199219 439.683594 681.390625 430.417969 681.734375 421.183594 C 681.734375 420.957031 681.746094 420.714844 681.765625 420.464844 C 681.910156 416.339844 682.058594 412.203125 682.203125 408.058594 C 682.800781 393.140625 682.800781 393.140625 682.988281 378.195312 C 682.988281 377.878906 682.988281 377.554688 682.988281 377.222656 C 682.988281 362.210938 681.296875 338.34375 670.378906 326.820312 C 670.085938 326.441406 669.78125 326.054688 669.46875 325.65625 C 664.167969 319.628906 654.695312 317.742188 647.074219 317.242188 C 644.4375 317.054688 641.769531 317.023438 639.136719 317.023438 C 638.632812 317.023438 638.144531 317.023438 637.660156 317.023438 C 636.34375 317.023438 635.039062 317.023438 633.742188 317.023438 C 632.925781 317.023438 632.109375 317.023438 631.292969 317.023438 C 624.988281 317.023438 618.683594 317.085938 612.378906 317.367188 C 602.214844 317.871094 592.054688 317.933594 581.890625 318.027344 C 580.636719 318.027344 579.371094 318.039062 578.09375 318.058594 C 557.421875 318.214844 536.84375 317.871094 516.203125 316.992188 C 509.429688 316.707031 502.621094 316.519531 495.847656 316.332031 C 494.84375 316.308594 493.851562 316.289062 492.867188 316.269531 C 492.511719 316.246094 492.144531 316.238281 491.769531 316.238281 C 489.40625 316.175781 487.042969 316.070312 484.679688 315.921875 C 482.484375 315.796875 480.289062 315.796875 478.09375 315.828125 Z M 226.519531 369.527344 C 226.332031 369.714844 226.132812 369.90625 225.925781 370.09375 C 217.738281 377.878906 207.105469 381.179688 196.09375 382.402344 C 196.03125 384.851562 196.46875 386.800781 198.164062 388.621094 C 198.667969 388.996094 198.667969 388.996094 199.230469 389.3125 C 199.441406 389.4375 199.660156 389.574219 199.890625 389.71875 C 204.0625 392.011719 208.890625 392.921875 213.535156 391.636719 C 218.113281 390.066406 221.691406 387.300781 224.011719 383.03125 C 225.738281 379.105469 226.519531 374.425781 226.835938 370.15625 C 226.679688 369.839844 226.679688 369.839844 226.519531 369.527344 Z M 144.964844 372.039062 C 144.714844 377 145.371094 381.585938 148.601562 385.542969 C 151.207031 388.335938 154.84375 389.59375 158.546875 390.222656 C 160.835938 390.285156 162.65625 389.8125 164.476562 388.335938 C 166.386719 386.296875 166.984375 383.847656 166.921875 381.148438 C 165.375 380.625 163.816406 380.121094 162.246094 379.640625 C 156.539062 377.847656 151.082031 375.621094 146.09375 372.324219 C 145.589844 371.976562 145.589844 371.976562 144.964844 372.039062 Z M 144.964844 372.039062 "/></g><path style=" stroke:none;fill-rule:nonzero;fill:#000000;fill-opacity:1;" d="M 239.695312 328.953125 C 240.03125 328.933594 240.375 328.921875 240.730469 328.921875 C 241.460938 328.921875 242.183594 328.921875 242.894531 328.921875 C 243.648438 328.921875 244.390625 328.914062 245.121094 328.890625 C 246.1875 328.890625 247.253906 328.890625 248.320312 328.890625 C 248.824219 328.859375 248.824219 328.859375 249.324219 328.859375 C 251.300781 328.859375 252.492188 329.082031 254.125 330.273438 C 255.726562 332 255.757812 333.351562 255.726562 335.644531 C 255.660156 336.929688 255.566406 337.90625 254.625 338.878906 C 253.464844 339.914062 252.523438 340.355469 250.957031 340.386719 C 250.707031 340.386719 250.453125 340.386719 250.203125 340.386719 C 249.765625 340.386719 249.765625 340.386719 249.355469 340.386719 C 248.75 340.40625 248.15625 340.417969 247.570312 340.417969 C 246.628906 340.4375 245.6875 340.449219 244.746094 340.449219 C 239.632812 340.511719 234.738281 340.980469 229.71875 342.113281 C 227.242188 342.613281 224.261719 343.023438 221.816406 342.207031 C 221.816406 341.996094 221.816406 341.789062 221.816406 341.578125 C 221.398438 341.371094 220.980469 341.160156 220.5625 340.949219 C 220.5625 340.742188 220.5625 340.53125 220.5625 340.324219 C 220.246094 340.21875 219.933594 340.113281 219.621094 340.007812 C 219.242188 338.910156 219.242188 338.03125 219.242188 336.898438 C 219.242188 336.503906 219.242188 336.105469 219.242188 335.707031 C 219.304688 334.734375 219.433594 334.230469 219.933594 333.414062 C 220.144531 333.414062 220.351562 333.414062 220.5625 333.414062 C 220.625 333.226562 220.695312 333.039062 220.78125 332.847656 C 221.472656 331.65625 222.472656 331.277344 223.761719 330.933594 C 224.136719 330.871094 224.523438 330.796875 224.921875 330.714844 C 225.128906 330.671875 225.339844 330.628906 225.546875 330.585938 C 225.96875 330.503906 226.394531 330.429688 226.835938 330.367188 C 227.484375 330.242188 228.140625 330.117188 228.8125 329.992188 C 232.449219 329.300781 235.996094 328.953125 239.695312 328.953125 Z M 239.695312 328.953125 "/><path style=" stroke:none;fill-rule:nonzero;fill:#000000;fill-opacity:1;" d="M 163.1875 332.691406 C 164.726562 333.507812 165.761719 334.609375 166.292969 336.242188 C 166.578125 338.847656 166.515625 340.886719 165.007812 343.054688 C 162.53125 346.070312 162.53125 346.070312 160.960938 346.601562 C 160.230469 346.644531 159.507812 346.667969 158.796875 346.667969 C 158.398438 346.667969 158.003906 346.667969 157.605469 346.667969 C 156.035156 346.570312 155.535156 346.226562 154.5 345.066406 C 153.152344 343.304688 152.929688 342.332031 152.964844 340.164062 C 153.246094 338.3125 154.1875 337.058594 155.316406 335.613281 C 155.484375 335.382812 155.648438 335.164062 155.816406 334.953125 C 157.667969 332.566406 160.273438 331.6875 163.1875 332.691406 Z M 163.1875 332.691406 "/><path style=" stroke:none;fill-rule:nonzero;fill:#000000;fill-opacity:1;" d="M 205.914062 336.460938 C 207.574219 337.371094 208.734375 338.816406 209.394531 340.574219 C 209.863281 342.394531 210.019531 344.40625 209.207031 346.132812 C 208.359375 347.324219 207.449219 348.171875 206.132812 348.800781 C 205.816406 348.957031 205.816406 348.957031 205.503906 349.117188 C 203.90625 349.273438 202.492188 349.335938 201.019531 348.613281 C 199.230469 347.011719 197.757812 345.535156 197.601562 343.023438 C 197.601562 342.625 197.601562 342.238281 197.601562 341.863281 C 197.601562 341.484375 197.601562 341.097656 197.601562 340.699219 C 197.664062 339.695312 197.664062 339.695312 197.976562 338.753906 C 198.601562 338.230469 199.230469 337.707031 199.859375 337.183594 C 199.960938 336.972656 200.066406 336.765625 200.171875 336.554688 C 201.929688 335.957031 204.125 335.894531 205.914062 336.460938 Z M 205.914062 336.460938 "/><path style=" stroke:none;fill-rule:nonzero;fill:#000000;fill-opacity:1;" d="M 183.421875 341.453125 C 184.613281 342.613281 185.335938 343.496094 185.585938 345.160156 C 185.398438 346.476562 185.082031 347.515625 184.175781 348.488281 C 182.824219 349.304688 181.664062 349.617188 180.128906 349.804688 C 179.75 349.847656 179.375 349.902344 179 349.964844 C 177.242188 350.121094 175.765625 350.214844 174.136719 349.429688 C 174.136719 349.21875 174.136719 349.011719 174.136719 348.800781 C 173.925781 348.800781 173.71875 348.800781 173.507812 348.800781 C 173.507812 348.59375 173.507812 348.382812 173.507812 348.171875 C 173.300781 348.171875 173.089844 348.171875 172.882812 348.171875 C 172.253906 346.886719 172.160156 345.851562 172.253906 344.40625 C 172.566406 343.652344 172.566406 343.652344 172.882812 343.148438 C 173.089844 343.148438 173.300781 343.148438 173.507812 343.148438 C 173.507812 342.941406 173.507812 342.730469 173.507812 342.519531 C 173.71875 342.519531 173.925781 342.519531 174.136719 342.519531 C 174.136719 342.3125 174.136719 342.101562 174.136719 341.894531 C 174.554688 341.894531 174.972656 341.894531 175.390625 341.894531 C 175.390625 341.683594 175.390625 341.472656 175.390625 341.265625 C 181.226562 340.480469 181.226562 340.480469 183.421875 341.453125 Z M 183.421875 341.453125 "/></g></svg>