<svg xmlns="http://www.w3.org/2000/svg" xmlns:xlink="http://www.w3.org/1999/xlink" width="3035" zoomAndPan="magnify" viewBox="0 0 2276.25 2818.499955" height="3758" preserveAspectRatio="xMidYMid meet" version="1.2"><g id="82464b38a0"><path style=" stroke:none;fill-rule:nonzero;fill:#5e20e1;fill-opacity:1;" d="M 1213.523438 1972.433594 C 1195.839844 1972.433594 1181.4375 1986.835938 1181.4375 2004.566406 C 1181.4375 2022.199219 1195.839844 2036.601562 1213.523438 2036.601562 C 1231.203125 2036.601562 1245.605469 2022.199219 1245.605469 2004.566406 C 1245.605469 1986.835938 1231.203125 1972.433594 1213.523438 1972.433594 Z M 1213.523438 1972.433594 "/><path style=" stroke:none;fill-rule:nonzero;fill:#5e20e1;fill-opacity:1;" d="M 1216.609375 1696.914062 C 1198.875 1696.914062 1184.476562 1711.316406 1184.476562 1729.046875 C 1184.476562 1746.679688 1198.875 1761.082031 1216.609375 1761.082031 C 1234.242188 1761.082031 1248.640625 1746.679688 1248.640625 1729.046875 C 1248.640625 1711.316406 1234.242188 1696.914062 1216.609375 1696.914062 Z M 1216.609375 1696.914062 "/><path style=" stroke:none;fill-rule:nonzero;fill:#5e20e1;fill-opacity:1;" d="M 1219.546875 1459.304688 C 1201.914062 1459.304688 1187.511719 1473.707031 1187.511719 1491.4375 C 1187.511719 1509.167969 1201.914062 1523.472656 1219.546875 1523.472656 C 1237.277344 1523.472656 1251.679688 1509.121094 1251.679688 1491.4375 C 1251.679688 1473.753906 1237.277344 1459.304688 1219.546875 1459.304688 Z M 1219.546875 1459.304688 "/><path style=" stroke:none;fill-rule:nonzero;fill:#5e20e1;fill-opacity:1;" d="M 1230.273438 1183.785156 C 1212.542969 1183.785156 1198.140625 1198.183594 1198.140625 1215.917969 C 1198.140625 1233.597656 1212.542969 1247.949219 1230.273438 1247.949219 C 1247.90625 1247.949219 1262.308594 1233.597656 1262.308594 1215.917969 C 1262.308594 1198.234375 1247.90625 1183.785156 1230.273438 1183.785156 Z M 1230.273438 1183.785156 "/><path style=" stroke:none;fill-rule:nonzero;fill:#5e20e1;fill-opacity:1;" d="M 1245.457031 926.535156 C 1227.726562 926.535156 1213.324219 940.886719 1213.324219 958.566406 C 1213.324219 976.296875 1227.726562 990.699219 1245.457031 990.699219 C 1263.089844 990.699219 1277.492188 976.296875 1277.492188 958.566406 C 1277.539062 940.933594 1263.140625 926.535156 1245.457031 926.535156 Z M 1245.457031 926.535156 "/><path style=" stroke:none;fill-rule:nonzero;fill:#5e20e1;fill-opacity:1;" d="M 2263.441406 2215.335938 L 2214.753906 2059.71875 L 1851.554688 752.402344 C 1849.449219 744.859375 1843.863281 738.738281 1836.46875 735.996094 L 1491.050781 607.566406 L 1422.085938 492.214844 C 1421.890625 491.921875 1421.742188 491.675781 1421.546875 491.382812 C 1418.507812 486.628906 1414.101562 483.300781 1409.105469 481.535156 C 1095.183594 368.683594 875.257812 478.109375 866.097656 482.808594 C 865.65625 483.054688 865.507812 483.644531 865.066406 483.886719 C 863.84375 484.574219 862.519531 484.917969 861.441406 485.894531 C 858.503906 488.394531 856.542969 491.527344 855.074219 494.859375 C 854.976562 495.054688 854.734375 495.105469 854.632812 495.347656 L 809.914062 604.039062 C 808.640625 604.332031 807.417969 604.234375 806.144531 604.726562 C 802.222656 606.292969 799.1875 608.984375 796.6875 612.023438 L 442.257812 735.800781 C 434.714844 738.445312 428.886719 744.664062 426.78125 752.402344 L 63.582031 2059.917969 C 60.9375 2067.3125 35.417969 2139.855469 16.5625 2216.753906 C 14.945312 2223.367188 16.167969 2230.324219 19.890625 2236.054688 C 23.613281 2241.785156 29.542969 2245.605469 36.25 2246.78125 L 281.160156 2288.316406 C 282.53125 2288.5625 283.902344 2288.660156 285.273438 2288.660156 C 295.609375 2288.660156 305.0625 2282.046875 308.492188 2271.957031 C 308.492188 2271.957031 334.207031 2195.398438 355.609375 2129.128906 L 564.859375 1480.21875 L 536.304688 2263.238281 C 536.15625 2267.058594 536.941406 2270.878906 538.507812 2274.40625 C 541.886719 2281.703125 623.148438 2446.871094 1078.089844 2446.871094 C 1097.828125 2446.871094 1118.351562 2446.578125 1139.511719 2445.890625 C 1158.957031 2445.597656 1616.589844 2437.515625 1740.316406 2279.207031 C 1743.894531 2274.652344 1745.707031 2268.96875 1745.511719 2263.191406 L 1714.210938 1482.425781 L 1922.773438 2129.128906 C 1924 2132.996094 1926.351562 2136.082031 1929.042969 2138.777344 C 1950.890625 2198.289062 1976.457031 2272.105469 1976.457031 2272.152344 C 1979.886719 2282.144531 1989.339844 2288.660156 1999.625 2288.660156 C 2000.996094 2288.660156 2002.417969 2288.5625 2003.789062 2288.316406 L 2244.238281 2246.78125 C 2251.195312 2245.554688 2257.316406 2241.441406 2260.992188 2235.417969 C 2264.664062 2229.390625 2265.546875 2222.09375 2263.441406 2215.335938 Z M 1447.949219 630.832031 L 1376.777344 870.402344 L 1284.152344 681.382812 L 1397.59375 546.683594 Z M 1359.144531 516.410156 L 1238.011719 660.121094 L 1197.601562 691.960938 C 1191.039062 697.105469 1187.609375 705.234375 1188.394531 713.511719 L 1194.515625 777.382812 L 1148.769531 897.929688 L 1089.597656 775.277344 L 1090.136719 711.40625 C 1090.1875 703.863281 1086.757812 696.664062 1080.832031 692.011719 L 1040.421875 660.171875 L 917.722656 514.648438 C 981.789062 491.726562 1145.828125 449.601562 1359.144531 516.410156 Z M 884.5625 551.335938 L 995.261719 682.605469 L 931.4375 851.589844 L 846.894531 640.480469 C 847.726562 639.257812 848.855469 638.226562 849.441406 636.808594 Z M 268.667969 2236.496094 L 70.6875 2202.894531 C 82.34375 2159.105469 95.324219 2118.890625 103.113281 2095.722656 L 300.703125 2139.65625 C 288.410156 2177.179688 276.015625 2214.5 268.667969 2236.496094 Z M 585.480469 2257.851562 L 620.160156 1305.40625 C 620.601562 1293.160156 611.980469 1282.53125 599.929688 1280.375 C 588.125 1278.367188 576.125 1285.371094 572.355469 1296.980469 L 315.789062 2092.832031 L 117.511719 2048.75 L 470.523438 777.824219 L 802.664062 661.835938 L 909.347656 928.199219 C 913.070312 937.503906 922.082031 943.578125 932.074219 943.578125 C 932.125 943.578125 932.222656 943.578125 932.320312 943.578125 C 942.410156 943.480469 951.421875 937.210938 954.996094 927.757812 L 1034.347656 717.726562 L 1041.058594 723.015625 L 1040.566406 780.570312 C 1040.566406 780.8125 1040.714844 781.007812 1040.714844 781.253906 C 1040.714844 782.820312 1041.253906 784.339844 1041.644531 785.957031 C 1041.988281 787.574219 1042.183594 789.238281 1042.871094 790.757812 C 1042.96875 790.953125 1042.917969 791.199219 1043.015625 791.441406 L 1127.804688 967.089844 C 1127.804688 967.089844 1127.804688 967.089844 1127.804688 967.140625 C 1122.269531 1094.492188 1078.382812 2139.511719 1122.5625 2389.269531 C 1123.054688 2392.15625 1124.082031 2394.753906 1125.453125 2397.152344 C 708.769531 2407.832031 601.9375 2282.046875 585.480469 2257.851562 Z M 1705.882812 1297.03125 C 1702.160156 1285.421875 1691.042969 1278.21875 1678.308594 1280.425781 C 1666.257812 1282.53125 1657.636719 1293.257812 1658.128906 1305.503906 L 1696.1875 2255.695312 C 1595.773438 2369.136719 1267.746094 2391.617188 1168.117188 2395.878906 C 1170.46875 2391.277344 1171.742188 2386.132812 1170.761719 2380.648438 C 1126.972656 2132.949219 1173.847656 1036.054688 1177.078125 961.308594 L 1242.371094 789.335938 C 1242.46875 789.140625 1242.421875 788.894531 1242.46875 788.648438 C 1243.058594 787.082031 1243.105469 785.417969 1243.304688 783.703125 C 1243.5 782.136719 1243.941406 780.566406 1243.792969 779 C 1243.792969 778.757812 1243.890625 778.558594 1243.890625 778.265625 L 1238.453125 722.035156 L 1246.535156 715.667969 L 1360.417969 948.132812 C 1364.582031 956.558594 1373.152344 961.847656 1382.410156 961.847656 C 1383.097656 961.847656 1383.734375 961.847656 1384.46875 961.75 C 1394.507812 960.917969 1403.03125 954.011719 1405.921875 944.363281 L 1490.609375 659.484375 L 1807.863281 777.484375 L 2160.921875 2048.699219 L 1962.597656 2092.78125 Z M 2015.886719 2236.496094 C 2008.003906 2213.863281 1994.433594 2175.367188 1981.210938 2138.875 L 2174.6875 2095.867188 L 2208.335938 2203.234375 Z M 2015.886719 2236.496094 "/></g></svg>