<svg xmlns="http://www.w3.org/2000/svg" xmlns:xlink="http://www.w3.org/1999/xlink" width="3035" zoomAndPan="magnify" viewBox="0 0 2276.25 2818.499955" height="3758" preserveAspectRatio="xMidYMid meet" version="1.2"><defs><clipPath id="f7c4c2198c"><path d="M 589 227.765625 L 2217 227.765625 L 2217 2242 L 589 2242 Z M 589 227.765625 "/></clipPath><clipPath id="3e0255f57a"><path d="M 145 906 L 1964 906 L 1964 2594.734375 L 145 2594.734375 Z M 145 906 "/></clipPath></defs><g id="277343276c"><path style=" stroke:none;fill-rule:nonzero;fill:#5e20e1;fill-opacity:1;" d="M 569 1148.664062 C 463.59375 1148.664062 376.683594 1231.878906 376.683594 1335.433594 C 376.683594 1438.988281 461.746094 1522.199219 569 1522.199219 C 676.253906 1522.199219 761.316406 1438.988281 761.316406 1335.433594 C 761.316406 1231.878906 674.402344 1148.664062 569 1148.664062 Z M 569 1450.082031 C 504.277344 1450.082031 450.648438 1398.304688 450.648438 1337.28125 C 450.648438 1276.257812 504.277344 1224.480469 569 1224.480469 C 633.71875 1224.480469 687.347656 1276.257812 687.347656 1337.28125 C 687.347656 1398.304688 633.71875 1450.082031 569 1450.082031 Z M 569 1450.082031 "/><path style=" stroke:none;fill-rule:nonzero;fill:#5e20e1;fill-opacity:1;" d="M 511.671875 1825.46875 C 511.671875 1929.023438 596.738281 2012.238281 703.988281 2012.238281 C 811.242188 2012.238281 896.304688 1929.023438 896.304688 1825.46875 C 896.304688 1721.914062 811.242188 1638.699219 703.988281 1638.699219 C 596.738281 1638.699219 511.671875 1721.914062 511.671875 1825.46875 Z M 822.339844 1825.46875 C 822.339844 1888.339844 768.710938 1938.269531 703.988281 1938.269531 C 639.269531 1938.269531 585.640625 1886.492188 585.640625 1825.46875 C 585.640625 1764.445312 639.269531 1712.667969 703.988281 1712.667969 C 768.710938 1712.667969 822.339844 1762.597656 822.339844 1825.46875 Z M 822.339844 1825.46875 "/><path style=" stroke:none;fill-rule:nonzero;fill:#5e20e1;fill-opacity:1;" d="M 1301.28125 2143.53125 C 1301.28125 2039.976562 1216.21875 1956.761719 1108.964844 1956.761719 C 1001.710938 1956.761719 916.648438 2039.976562 916.648438 2143.53125 C 916.648438 2247.085938 1001.710938 2330.300781 1108.964844 2330.300781 C 1216.21875 2330.300781 1301.28125 2247.085938 1301.28125 2143.53125 Z M 992.464844 2143.53125 C 992.464844 2080.65625 1046.089844 2030.730469 1110.8125 2030.730469 C 1175.535156 2030.730469 1229.160156 2082.507812 1229.160156 2143.53125 C 1229.160156 2204.554688 1175.535156 2256.332031 1110.8125 2256.332031 C 1044.242188 2258.179688 992.464844 2206.402344 992.464844 2143.53125 Z M 992.464844 2143.53125 "/><path style=" stroke:none;fill-rule:nonzero;fill:#5e20e1;fill-opacity:1;" d="M 953.632812 978.539062 C 977.671875 947.101562 992.464844 908.269531 992.464844 865.738281 C 992.464844 762.183594 907.402344 678.96875 800.148438 678.96875 C 750.21875 678.96875 705.839844 697.460938 670.703125 728.894531 C 696.59375 730.746094 720.632812 743.691406 739.125 762.183594 L 744.671875 767.730469 C 761.316406 758.484375 779.808594 754.785156 800.148438 754.785156 C 864.871094 754.785156 918.496094 806.5625 918.496094 867.585938 C 918.496094 889.777344 911.101562 910.117188 901.855469 926.761719 Z M 953.632812 978.539062 "/><path style=" stroke:none;fill-rule:nonzero;fill:#5e20e1;fill-opacity:1;" d="M 36.429688 329.46875 C 16.089844 331.320312 3.144531 349.8125 4.992188 370.152344 C 6.84375 388.644531 23.484375 401.589844 41.976562 401.589844 C 128.890625 434.875 162.175781 532.882812 199.160156 634.585938 C 247.238281 767.730469 304.5625 930.457031 507.976562 930.457031 C 511.671875 930.457031 517.222656 930.457031 520.917969 930.457031 C 519.070312 934.15625 519.070312 939.703125 519.070312 943.402344 C 519.070312 952.648438 522.769531 961.894531 530.164062 969.292969 L 2100.132812 2509.671875 C 2122.324219 2531.863281 2151.910156 2542.957031 2177.796875 2542.957031 C 2199.988281 2542.957031 2222.179688 2535.558594 2236.972656 2518.917969 C 2272.109375 2483.78125 2268.410156 2422.757812 2227.726562 2380.226562 L 685.496094 812.109375 C 679.949219 804.714844 670.703125 801.015625 659.609375 801.015625 C 657.761719 801.015625 654.0625 801.015625 652.210938 801.015625 C 583.792969 497.746094 319.355469 288.789062 36.429688 329.46875 Z M 1060.882812 1298.449219 L 2174.101562 2432.003906 C 2187.042969 2444.949219 2188.894531 2461.59375 2185.195312 2467.140625 C 2179.648438 2472.6875 2164.855469 2470.839844 2150.0625 2457.894531 L 1016.503906 1342.828125 Z M 659.609375 891.625 L 1009.105469 1246.671875 L 962.878906 1292.902344 L 607.832031 943.402344 Z M 267.578125 610.546875 C 241.691406 536.578125 213.953125 458.914062 164.023438 403.4375 C 369.285156 431.175781 544.960938 610.546875 585.640625 847.246094 C 369.285156 891.625 324.90625 765.878906 267.578125 610.546875 Z M 267.578125 610.546875 "/><g clip-rule="nonzero" clip-path="url(#f7c4c2198c)"><path style=" stroke:none;fill-rule:nonzero;fill:#5e20e1;fill-opacity:1;" d="M 1894.871094 1154.210938 C 1896.722656 1154.210938 1898.570312 1154.210938 1900.417969 1154.210938 L 1930.007812 1146.8125 C 1939.253906 1144.964844 1948.5 1137.566406 1954.046875 1130.171875 L 2050.203125 967.441406 C 2100.132812 882.378906 2151.910156 795.46875 2138.964844 682.667969 C 2127.871094 588.355469 2068.695312 497.746094 1970.6875 423.777344 C 1809.808594 301.730469 1576.808594 227.765625 1360.453125 227.765625 C 1068.28125 227.765625 798.300781 329.46875 589.339844 497.746094 C 604.132812 516.238281 618.925781 536.578125 631.871094 558.769531 C 829.734375 397.890625 1084.925781 301.730469 1360.453125 301.730469 C 1562.015625 301.730469 1776.523438 370.152344 1922.609375 481.105469 C 1979.933594 523.636719 2050.203125 595.753906 2063.148438 690.0625 C 2074.242188 776.976562 2033.5625 847.246094 1985.480469 928.609375 L 1898.570312 1078.394531 L 1885.625 1082.09375 C 1776.523438 1091.339844 1676.667969 1143.117188 1610.097656 1222.632812 C 1550.921875 1292.902344 1523.183594 1379.8125 1530.582031 1468.574219 C 1536.128906 1525.898438 1556.46875 1579.527344 1587.90625 1623.90625 L 1676.667969 1712.667969 C 1746.9375 1764.445312 1837.546875 1792.183594 1933.703125 1788.484375 L 1952.195312 1810.675781 C 1968.839844 1832.867188 1989.179688 1856.90625 2009.523438 1880.945312 C 2068.695312 1951.214844 2142.664062 2038.125 2142.664062 2108.394531 C 2142.664062 2134.285156 2140.816406 2158.324219 2135.265625 2180.515625 L 2194.441406 2241.539062 C 2209.234375 2200.855469 2216.632812 2156.476562 2216.632812 2108.394531 C 2216.632812 2010.390625 2135.265625 1916.078125 2064.996094 1832.867188 C 2044.65625 1808.828125 2024.316406 1784.785156 2009.523438 1764.445312 C 2009.523438 1764.445312 2007.671875 1762.597656 2007.671875 1762.597656 L 1974.386719 1725.613281 C 1966.992188 1716.367188 1955.894531 1712.667969 1942.949219 1712.667969 C 1769.125 1727.460938 1615.644531 1612.8125 1602.699219 1459.328125 C 1597.152344 1390.910156 1619.339844 1322.488281 1665.570312 1267.011719 C 1721.046875 1204.140625 1804.261719 1161.609375 1894.871094 1154.210938 Z M 1894.871094 1154.210938 "/></g><g clip-rule="nonzero" clip-path="url(#3e0255f57a)"><path style=" stroke:none;fill-rule:nonzero;fill:#5e20e1;fill-opacity:1;" d="M 262.03125 906.417969 C 188.0625 1059.902344 145.53125 1230.027344 145.53125 1411.25 C 145.53125 2064.015625 691.046875 2594.734375 1362.304688 2594.734375 C 1488.050781 2594.734375 1758.03125 2581.789062 1963.292969 2480.085938 L 1907.816406 2424.609375 C 1711.800781 2513.371094 1454.761719 2520.765625 1364.152344 2520.765625 C 733.578125 2520.765625 221.351562 2023.332031 221.351562 1411.25 C 221.351562 1248.519531 258.332031 1093.1875 323.054688 954.496094 C 299.015625 939.703125 278.675781 924.910156 262.03125 906.417969 Z M 262.03125 906.417969 "/></g></g></svg>