<svg xmlns="http://www.w3.org/2000/svg" xmlns:xlink="http://www.w3.org/1999/xlink" width="1080" zoomAndPan="magnify" viewBox="0 0 810 1020" height="1350" preserveAspectRatio="xMidYMid meet" version="1.2"><defs><clipPath id="b9467e64dc"><path d="M 70.507812 647 L 127 647 L 127 695.84375 L 70.507812 695.84375 Z M 70.507812 647 "/></clipPath><clipPath id="9eb1a5464b"><path d="M 242 316.34375 L 260 316.34375 L 260 335 L 242 335 Z M 242 316.34375 "/></clipPath><clipPath id="614a1b88a1"><path d="M 550 647 L 607 647 L 607 695.84375 L 550 695.84375 Z M 550 647 "/></clipPath><clipPath id="4376bfab7c"><path d="M 721 316.34375 L 739.507812 316.34375 L 739.507812 335 L 721 335 Z M 721 316.34375 "/></clipPath><clipPath id="66d0236f50"><path d="M 700 490 L 739.507812 490 L 739.507812 544 L 700 544 Z M 700 490 "/></clipPath></defs><g id="af15d2f1ca"><path style=" stroke:none;fill-rule:nonzero;fill:#479ba0;fill-opacity:1;" d="M 144.609375 358.5625 C 140.605469 338.191406 121.925781 325.722656 101.621094 328.542969 C 81.046875 331.402344 68.875 352.070312 71.578125 371.496094 C 71.847656 373.445312 74.105469 374.117188 75.726562 373.851562 C 97.902344 370.136719 120.078125 366.425781 142.253906 362.707031 C 146.539062 361.992188 144.714844 355.5 140.464844 356.210938 C 118.285156 359.929688 96.109375 363.640625 73.933594 367.351562 C 75.3125 368.136719 76.695312 368.921875 78.082031 369.707031 C 75.734375 352.855469 86.988281 338.269531 103.414062 335.042969 C 120.117188 331.765625 135.019531 344.648438 138.105469 360.355469 C 138.945312 364.617188 145.445312 362.808594 144.609375 358.5625 "/><path style=" stroke:none;fill-rule:nonzero;fill:#479ba0;fill-opacity:1;" d="M 180.71875 568.386719 C 169.738281 563.464844 158.753906 558.546875 147.773438 553.625 C 143.835938 551.875 140.40625 557.667969 144.367188 559.449219 C 155.351562 564.371094 166.332031 569.277344 177.316406 574.195312 C 181.253906 575.960938 184.6875 570.152344 180.71875 568.386719 "/><path style=" stroke:none;fill-rule:nonzero;fill:#479ba0;fill-opacity:1;" d="M 176.269531 555.09375 C 165.277344 550.175781 154.296875 545.253906 143.3125 540.335938 C 139.382812 538.566406 135.945312 544.378906 139.910156 546.15625 C 150.890625 551.078125 161.875 555.984375 172.855469 560.90625 C 176.792969 562.671875 180.230469 556.859375 176.269531 555.09375 "/><path style=" stroke:none;fill-rule:nonzero;fill:#479ba0;fill-opacity:1;" d="M 167.820312 573.914062 C 156.835938 569.007812 145.855469 564.085938 134.871094 559.164062 C 130.933594 557.398438 127.496094 563.210938 131.460938 564.988281 C 142.449219 569.894531 153.433594 574.816406 164.414062 579.738281 C 168.351562 581.503906 171.78125 575.691406 167.820312 573.914062 "/><g clip-rule="nonzero" clip-path="url(#b9467e64dc)"><path style=" stroke:none;fill-rule:nonzero;fill:#834baa;fill-opacity:1;" d="M 122.542969 693.953125 C 131.015625 679.273438 126.71875 661.667969 112.703125 652.273438 C 98.628906 642.851562 79.910156 648.808594 70.984375 662.113281 C 69.945312 663.664062 70.710938 665.792969 72.199219 666.710938 C 87.441406 676.199219 102.6875 685.691406 117.925781 695.167969 C 121.632812 697.472656 125.015625 691.636719 121.332031 689.34375 C 106.089844 679.867188 90.84375 670.378906 75.601562 660.902344 C 76.003906 662.4375 76.410156 663.972656 76.816406 665.511719 C 84.179688 654.539062 97.917969 651.53125 109.300781 658.097656 C 120.746094 664.6875 122.949219 679.757812 116.714844 690.558594 C 114.539062 694.332031 120.371094 697.714844 122.542969 693.953125 "/></g><path style=" stroke:none;fill-rule:nonzero;fill:#834baa;fill-opacity:1;" d="M 133.214844 455.53125 C 133.214844 460.476562 129.210938 464.480469 124.269531 464.480469 C 119.324219 464.480469 115.320312 460.476562 115.320312 455.53125 C 115.320312 450.597656 119.324219 446.597656 124.269531 446.597656 C 129.210938 446.597656 133.214844 450.597656 133.214844 455.53125 "/><path style=" stroke:none;fill-rule:nonzero;fill:#c62f6a;fill-opacity:1;" d="M 222.367188 507.902344 C 226.792969 516.246094 231.203125 524.601562 235.628906 532.933594 C 238.207031 537.800781 240.433594 542.449219 246.367188 543.300781 C 256.269531 544.730469 262.125 534.726562 258.496094 526.355469 C 254.785156 517.78125 249.605469 509.574219 245.222656 501.324219 C 242.65625 496.457031 240.433594 491.804688 234.496094 490.941406 C 224.59375 489.527344 218.738281 499.515625 222.367188 507.902344 C 224.09375 511.890625 229.894531 508.441406 228.195312 504.503906 C 226.699219 501.066406 228.882812 498.597656 232.054688 497.65625 C 236.195312 496.402344 238.003906 502.0625 239.40625 504.71875 C 243.832031 513.0625 248.257812 521.40625 252.667969 529.753906 C 254.449219 533.09375 251.777344 535.710938 248.808594 536.601562 C 244.667969 537.839844 242.859375 532.191406 241.457031 529.535156 C 237.03125 521.191406 232.605469 512.847656 228.195312 504.503906 C 226.15625 500.660156 220.328125 504.058594 222.367188 507.902344 "/><g clip-rule="nonzero" clip-path="url(#9eb1a5464b)"><path style=" stroke:none;fill-rule:nonzero;fill:#c62f6a;fill-opacity:1;" d="M 259.914062 325.4375 C 259.914062 330.375 255.894531 334.378906 250.957031 334.378906 C 246.015625 334.378906 242.011719 330.375 242.011719 325.4375 C 242.011719 320.503906 246.015625 316.496094 250.957031 316.496094 C 255.894531 316.496094 259.914062 320.503906 259.914062 325.4375 "/></g><path style=" stroke:none;fill-rule:nonzero;fill:#eba94a;fill-opacity:1;" d="M 221.867188 376.097656 C 213.367188 384.617188 204.875 393.136719 196.378906 401.660156 C 193.304688 404.738281 198.074219 409.503906 201.148438 406.421875 C 209.644531 397.902344 218.144531 389.382812 226.628906 380.871094 C 229.707031 377.785156 224.945312 373.019531 221.867188 376.097656 "/><path style=" stroke:none;fill-rule:nonzero;fill:#eba94a;fill-opacity:1;" d="M 207.851562 375.554688 C 199.351562 384.070312 190.855469 392.589844 182.359375 401.109375 C 179.289062 404.191406 184.058594 408.957031 187.128906 405.875 C 195.625 397.355469 204.121094 388.835938 212.613281 380.320312 C 215.6875 377.238281 210.914062 372.46875 207.851562 375.554688 "/><path style=" stroke:none;fill-rule:nonzero;fill:#eba94a;fill-opacity:1;" d="M 222.476562 390.117188 C 213.976562 398.636719 205.488281 407.15625 196.984375 415.675781 C 193.914062 418.753906 198.679688 423.523438 201.753906 420.441406 C 210.25 411.921875 218.75 403.402344 227.25 394.878906 C 230.3125 391.800781 225.550781 387.035156 222.476562 390.117188 "/><path style=" stroke:none;fill-rule:nonzero;fill:#eba94a;fill-opacity:1;" d="M 240.660156 635.734375 C 240.660156 640.667969 236.65625 644.671875 231.714844 644.671875 C 226.765625 644.671875 222.773438 640.667969 222.773438 635.734375 C 222.773438 630.785156 226.765625 626.78125 231.714844 626.78125 C 236.65625 626.78125 240.660156 630.785156 240.660156 635.734375 "/><path style=" stroke:none;fill-rule:nonzero;fill:#479ba0;fill-opacity:1;" d="M 358.65625 534.390625 C 367.398438 552.464844 388.488281 560.609375 407.066406 552.832031 C 425.925781 544.957031 434.0625 522.582031 426.332031 504.113281 C 425.425781 501.96875 423.539062 501.132812 421.378906 502.105469 C 400.871094 511.339844 380.378906 520.558594 359.871094 529.777344 C 355.90625 531.558594 359.34375 537.367188 363.273438 535.601562 C 383.777344 526.382812 404.273438 517.148438 424.777344 507.929688 C 423.132812 507.253906 421.472656 506.578125 419.828125 505.90625 C 426.222656 521.191406 420.757812 537.8125 406.132812 545.859375 C 390.589844 554.433594 371.796875 546.117188 364.484375 530.992188 C 362.597656 527.070312 356.769531 530.492188 358.65625 534.390625 "/><path style=" stroke:none;fill-rule:nonzero;fill:#479ba0;fill-opacity:1;" d="M 327.183594 454.828125 C 339.121094 453.292969 351.0625 451.757812 363 450.21875 C 367.25 449.671875 367.304688 442.917969 363 443.476562 C 351.0625 445.015625 339.121094 446.550781 327.183594 448.085938 C 322.933594 448.632812 322.878906 455.382812 327.183594 454.828125 "/><path style=" stroke:none;fill-rule:nonzero;fill:#479ba0;fill-opacity:1;" d="M 337.933594 463.835938 C 349.875 462.296875 361.800781 460.761719 373.742188 459.222656 C 377.992188 458.683594 378.042969 451.929688 373.742188 452.484375 C 361.800781 454.019531 349.875 455.558594 337.933594 457.09375 C 333.683594 457.648438 333.628906 464.386719 337.933594 463.835938 "/><path style=" stroke:none;fill-rule:nonzero;fill:#479ba0;fill-opacity:1;" d="M 335.289062 443.371094 C 347.230469 441.835938 359.171875 440.296875 371.109375 438.761719 C 375.359375 438.21875 375.414062 431.46875 371.109375 432.019531 C 359.171875 433.558594 347.230469 435.09375 335.289062 436.632812 C 331.039062 437.179688 330.988281 443.925781 335.289062 443.371094 "/><path style=" stroke:none;fill-rule:nonzero;fill:#479ba0;fill-opacity:1;" d="M 624.210938 358.5625 C 620.203125 338.191406 601.515625 325.722656 581.210938 328.542969 C 560.636719 331.402344 548.46875 352.070312 551.167969 371.496094 C 551.4375 373.445312 553.703125 374.117188 555.320312 373.851562 C 577.503906 370.136719 599.667969 366.425781 621.847656 362.707031 C 626.140625 361.992188 624.304688 355.5 620.054688 356.210938 C 597.875 359.929688 575.707031 363.640625 553.527344 367.351562 C 554.902344 368.136719 556.292969 368.921875 557.667969 369.707031 C 555.335938 352.855469 566.585938 338.269531 583.007812 335.042969 C 599.710938 331.765625 614.617188 344.648438 617.707031 360.355469 C 618.542969 364.617188 625.03125 362.808594 624.210938 358.5625 "/><path style=" stroke:none;fill-rule:nonzero;fill:#479ba0;fill-opacity:1;" d="M 660.324219 568.386719 C 649.332031 563.464844 638.347656 558.546875 627.367188 553.625 C 623.441406 551.875 620 557.667969 623.964844 559.449219 C 634.949219 564.371094 645.929688 569.277344 656.914062 574.195312 C 660.851562 575.960938 664.277344 570.152344 660.324219 568.386719 "/><path style=" stroke:none;fill-rule:nonzero;fill:#479ba0;fill-opacity:1;" d="M 655.859375 555.09375 L 622.914062 540.335938 C 618.976562 538.566406 615.535156 544.378906 619.515625 546.15625 C 630.484375 551.078125 641.476562 555.984375 652.460938 560.90625 C 656.386719 562.671875 659.828125 556.859375 655.859375 555.09375 "/><path style=" stroke:none;fill-rule:nonzero;fill:#479ba0;fill-opacity:1;" d="M 647.414062 573.914062 C 636.433594 569.007812 625.449219 564.085938 614.46875 559.164062 C 610.527344 557.398438 607.101562 563.210938 611.054688 564.988281 C 622.039062 569.894531 633.03125 574.816406 644.015625 579.738281 C 647.941406 581.503906 651.382812 575.691406 647.414062 573.914062 "/><g clip-rule="nonzero" clip-path="url(#614a1b88a1)"><path style=" stroke:none;fill-rule:nonzero;fill:#834baa;fill-opacity:1;" d="M 602.136719 693.953125 C 610.609375 679.273438 606.320312 661.667969 592.300781 652.273438 C 578.21875 642.851562 559.503906 648.808594 550.585938 662.113281 C 549.535156 663.664062 550.304688 665.792969 551.789062 666.710938 C 567.03125 676.199219 582.277344 685.691406 597.523438 695.167969 C 601.234375 697.472656 604.605469 691.636719 600.921875 689.34375 C 585.691406 679.867188 570.445312 670.378906 555.199219 660.902344 L 556.414062 665.511719 C 563.769531 654.539062 577.515625 651.53125 588.890625 658.097656 C 600.34375 664.6875 602.542969 679.757812 596.308594 690.558594 C 594.136719 694.332031 599.964844 697.714844 602.136719 693.953125 "/></g><path style=" stroke:none;fill-rule:nonzero;fill:#834baa;fill-opacity:1;" d="M 414.726562 363.542969 C 423.1875 348.871094 418.898438 331.253906 404.878906 321.867188 C 390.808594 312.441406 372.09375 318.402344 363.175781 331.699219 C 362.125 333.257812 362.894531 335.382812 364.378906 336.3125 C 379.625 345.789062 394.867188 355.273438 410.113281 364.757812 C 413.808594 367.058594 417.195312 361.230469 413.511719 358.933594 C 398.269531 349.453125 383.023438 339.96875 367.777344 330.488281 C 368.183594 332.027344 368.585938 333.5625 368.992188 335.101562 C 376.359375 324.125 390.09375 321.128906 401.480469 327.6875 C 412.933594 334.285156 415.132812 349.347656 408.898438 360.144531 C 406.726562 363.914062 412.554688 367.308594 414.726562 363.542969 "/><path style=" stroke:none;fill-rule:nonzero;fill:#834baa;fill-opacity:1;" d="M 612.808594 455.53125 C 612.808594 460.476562 608.800781 464.480469 603.863281 464.480469 C 598.914062 464.480469 594.917969 460.476562 594.917969 455.53125 C 594.917969 450.597656 598.914062 446.597656 603.863281 446.597656 C 608.800781 446.597656 612.808594 450.597656 612.808594 455.53125 "/><path style=" stroke:none;fill-rule:nonzero;fill:#834baa;fill-opacity:1;" d="M 321.8125 576.824219 C 321.8125 581.773438 317.804688 585.777344 312.867188 585.777344 C 307.929688 585.777344 303.921875 581.773438 303.921875 576.824219 C 303.921875 571.890625 307.929688 567.886719 312.867188 567.886719 C 317.804688 567.886719 321.8125 571.890625 321.8125 576.824219 "/><path style=" stroke:none;fill-rule:nonzero;fill:#c62f6a;fill-opacity:1;" d="M 471.203125 387.519531 C 465.066406 394.703125 458.9375 401.886719 452.800781 409.066406 C 449.550781 412.867188 445.109375 417.253906 446.714844 422.820312 C 449.347656 431.988281 459.910156 435.328125 466.804688 428.488281 C 473.441406 421.914062 479.148438 414.039062 485.21875 406.941406 C 488.472656 403.144531 492.910156 398.757812 491.304688 393.1875 C 488.675781 384.023438 478.109375 380.679688 471.203125 387.519531 C 468.113281 390.585938 472.890625 395.351562 475.980469 392.285156 C 478.785156 389.5 482.117188 390.195312 484.234375 393.378906 C 486.746094 397.128906 480.902344 401.640625 478.773438 404.132812 C 473.199219 410.660156 467.613281 417.191406 462.042969 423.722656 C 459.425781 426.78125 455.769531 425.617188 453.785156 422.625 C 451.277344 418.875 457.117188 414.363281 459.25 411.875 C 464.820312 405.34375 470.394531 398.8125 475.980469 392.285156 C 478.785156 389 474.035156 384.207031 471.203125 387.519531 "/><path style=" stroke:none;fill-rule:nonzero;fill:#c62f6a;fill-opacity:1;" d="M 483.65625 598.863281 C 483.65625 603.796875 479.648438 607.800781 474.710938 607.800781 C 469.757812 607.800781 465.753906 603.796875 465.753906 598.863281 C 465.753906 593.929688 469.757812 589.925781 474.710938 589.925781 C 479.648438 589.925781 483.65625 593.929688 483.65625 598.863281 "/><g clip-rule="nonzero" clip-path="url(#4376bfab7c)"><path style=" stroke:none;fill-rule:nonzero;fill:#c62f6a;fill-opacity:1;" d="M 739.507812 325.4375 C 739.507812 330.375 735.5 334.378906 730.550781 334.378906 C 725.609375 334.378906 721.605469 330.375 721.605469 325.4375 C 721.605469 320.503906 725.609375 316.496094 730.550781 316.496094 C 735.5 316.496094 739.507812 320.503906 739.507812 325.4375 "/></g><g clip-rule="nonzero" clip-path="url(#66d0236f50)"><path style=" stroke:none;fill-rule:nonzero;fill:#c62f6a;fill-opacity:1;" d="M 701.960938 507.902344 C 706.386719 516.246094 710.8125 524.601562 715.234375 532.933594 C 717.8125 537.800781 720.027344 542.449219 725.960938 543.300781 C 735.863281 544.730469 741.71875 534.726562 738.089844 526.355469 C 734.378906 517.78125 729.199219 509.574219 724.816406 501.324219 C 722.25 496.457031 720.027344 491.804688 714.089844 490.941406 C 704.1875 489.527344 698.332031 499.515625 701.960938 507.902344 C 703.6875 511.890625 709.488281 508.441406 707.789062 504.503906 C 706.292969 501.066406 708.476562 498.597656 711.648438 497.65625 C 715.804688 496.402344 717.597656 502.0625 719 504.71875 L 732.277344 529.753906 C 734.042969 533.09375 731.371094 535.710938 728.402344 536.601562 C 724.261719 537.839844 722.453125 532.191406 721.050781 529.535156 C 716.625 521.191406 712.214844 512.847656 707.789062 504.503906 C 705.75 500.660156 699.921875 504.058594 701.960938 507.902344 "/></g><path style=" stroke:none;fill-rule:nonzero;fill:#eba94a;fill-opacity:1;" d="M 406.621094 671.496094 C 401.683594 660.535156 396.730469 649.578125 391.792969 638.605469 C 390.011719 634.640625 384.195312 638.078125 385.964844 642 C 390.914062 652.972656 395.851562 663.933594 400.792969 674.90625 C 402.585938 678.855469 408.386719 675.433594 406.621094 671.496094 "/><path style=" stroke:none;fill-rule:nonzero;fill:#eba94a;fill-opacity:1;" d="M 412.125 658.609375 C 407.1875 647.636719 402.25 636.675781 397.296875 625.703125 C 395.515625 621.753906 389.703125 625.179688 391.46875 629.113281 C 396.421875 640.074219 401.359375 651.046875 406.296875 662.003906 C 408.078125 665.96875 413.890625 662.53125 412.125 658.609375 "/><path style=" stroke:none;fill-rule:nonzero;fill:#eba94a;fill-opacity:1;" d="M 393.289062 667.074219 C 388.351562 656.113281 383.414062 645.140625 378.476562 634.183594 C 376.683594 630.21875 370.878906 633.65625 372.648438 637.578125 C 377.585938 648.539062 382.523438 659.511719 387.476562 670.484375 C 389.257812 674.433594 395.070312 671.011719 393.289062 667.074219 "/><path style=" stroke:none;fill-rule:nonzero;fill:#eba94a;fill-opacity:1;" d="M 321.8125 368.996094 C 321.8125 373.929688 317.804688 377.9375 312.867188 377.9375 C 307.929688 377.9375 303.921875 373.929688 303.921875 368.996094 C 303.921875 364.054688 307.929688 360.054688 312.867188 360.054688 C 317.804688 360.054688 321.8125 364.054688 321.8125 368.996094 "/><path style=" stroke:none;fill-rule:nonzero;fill:#eba94a;fill-opacity:1;" d="M 515.050781 496.914062 C 515.050781 501.847656 511.042969 505.851562 506.09375 505.851562 C 501.152344 505.851562 497.148438 501.847656 497.148438 496.914062 C 497.148438 491.96875 501.152344 487.964844 506.09375 487.964844 C 511.042969 487.964844 515.050781 491.96875 515.050781 496.914062 "/><path style=" stroke:none;fill-rule:nonzero;fill:#eba94a;fill-opacity:1;" d="M 701.460938 376.097656 C 692.960938 384.617188 684.460938 393.136719 675.976562 401.660156 C 672.898438 404.738281 677.675781 409.503906 680.738281 406.421875 C 689.238281 397.902344 697.738281 389.382812 706.222656 380.871094 C 709.300781 377.785156 704.539062 373.019531 701.460938 376.097656 "/><path style=" stroke:none;fill-rule:nonzero;fill:#eba94a;fill-opacity:1;" d="M 687.445312 375.554688 C 678.945312 384.070312 670.445312 392.589844 661.957031 401.109375 C 658.882812 404.191406 663.644531 408.957031 666.722656 405.875 C 675.21875 397.355469 683.71875 388.835938 692.207031 380.320312 C 695.28125 377.238281 690.519531 372.46875 687.445312 375.554688 "/><path style=" stroke:none;fill-rule:nonzero;fill:#eba94a;fill-opacity:1;" d="M 702.070312 390.117188 C 693.570312 398.636719 685.082031 407.15625 676.582031 415.675781 C 673.507812 418.753906 678.269531 423.523438 681.359375 420.441406 C 689.84375 411.921875 698.34375 403.402344 706.84375 394.878906 C 709.921875 391.800781 705.144531 387.035156 702.070312 390.117188 "/><path style=" stroke:none;fill-rule:nonzero;fill:#eba94a;fill-opacity:1;" d="M 720.253906 635.734375 C 720.253906 640.667969 716.25 644.671875 711.308594 644.671875 C 706.359375 644.671875 702.367188 640.667969 702.367188 635.734375 C 702.367188 630.785156 706.359375 626.78125 711.308594 626.78125 C 716.25 626.78125 720.253906 630.785156 720.253906 635.734375 "/></g></svg>