<svg xmlns="http://www.w3.org/2000/svg" xmlns:xlink="http://www.w3.org/1999/xlink" width="1080" zoomAndPan="magnify" viewBox="0 0 810 1020" height="1350" preserveAspectRatio="xMidYMid meet" version="1.2"><defs><clipPath id="d9ce1e4b47"><path d="M 24 469.636719 L 113 469.636719 L 113 531 L 24 531 Z M 24 469.636719 "/></clipPath><clipPath id="2af2bc5a88"><path d="M 592 469.636719 L 681 469.636719 L 681 531 L 592 531 Z M 592 469.636719 "/></clipPath><clipPath id="f90135458a"><path d="M 319 491 L 421 491 L 421 582.136719 L 319 582.136719 Z M 319 491 "/></clipPath></defs><g id="f69626a1c2"><path style=" stroke:none;fill-rule:nonzero;fill:#f36589;fill-opacity:1;" d="M 142.710938 561.863281 C 142.628906 561.933594 142.601562 561.960938 142.15625 561.71875 C 140.847656 561.046875 138.589844 559.75 135.941406 557.867188 C 134.59375 556.960938 133.125 555.894531 131.816406 554.429688 C 130.5625 552.890625 129.386719 551.113281 128.636719 548.753906 C 128.582031 548.589844 128.449219 547.925781 128.527344 547.730469 C 128.75 547.535156 132.273438 543.828125 138.324219 540.300781 C 141.332031 538.492188 145.023438 536.820312 149.085938 535.464844 C 150.085938 535.074219 151.140625 534.8125 152.195312 534.5625 C 153.257812 534.304688 154.332031 534.039062 155.417969 533.78125 C 156.492188 533.480469 157.589844 533.363281 158.691406 533.21875 L 162.007812 532.789062 C 162.5625 532.722656 163.113281 532.640625 163.667969 532.59375 L 165.308594 532.558594 C 166.40625 532.539062 167.488281 532.519531 168.582031 532.5 C 169.644531 532.507812 170.738281 532.421875 171.769531 532.519531 C 172.800781 532.613281 173.832031 532.703125 174.828125 532.796875 C 175.84375 532.890625 176.828125 532.992188 177.792969 533.078125 C 178.757812 533.167969 179.707031 533.261719 180.59375 533.46875 C 182.367188 533.832031 184.054688 534.171875 185.601562 534.484375 C 188.742188 535.027344 191.140625 535.96875 192.882812 536.464844 C 194.605469 537.003906 195.585938 537.320312 195.585938 537.320312 C 195.585938 537.320312 196.183594 537.644531 197.195312 538.203125 C 198.179688 538.761719 199.449219 539.746094 200.933594 540.820312 C 202.382812 541.921875 204.007812 543.183594 205.570312 544.519531 C 207.164062 545.828125 208.515625 547.484375 209.757812 548.941406 C 214.089844 553.605469 214.476562 556.265625 212.976562 557.664062 C 211.464844 559.058594 208.082031 559.210938 204.523438 558.6875 C 204.734375 559.089844 200.738281 557.820312 196.617188 557.230469 C 194.605469 556.859375 192.558594 556.484375 191.027344 556.203125 C 189.515625 556.0625 188.484375 555.96875 188.484375 555.96875 C 188.484375 555.96875 187.695312 555.722656 186.328125 555.296875 C 185.652344 555.082031 184.828125 554.824219 183.878906 554.523438 C 182.914062 554.222656 181.835938 554.089844 180.660156 553.828125 C 179.484375 553.589844 178.210938 553.324219 176.859375 553.050781 C 175.523438 552.859375 174.105469 552.785156 172.65625 552.628906 C 171.914062 552.558594 171.175781 552.484375 170.433594 552.414062 C 169.691406 552.425781 168.953125 552.445312 168.195312 552.464844 C 166.699219 552.527344 165.132812 552.40625 163.675781 552.703125 C 157.660156 553.265625 152.105469 555.351562 148.402344 557.582031 C 147.9375 557.859375 147.488281 558.121094 147.0625 558.375 C 146.671875 558.65625 146.296875 558.925781 145.941406 559.175781 C 145.582031 559.433594 145.25 559.667969 144.941406 559.886719 C 144.664062 560.125 144.40625 560.347656 144.167969 560.546875 C 143.179688 561.332031 142.792969 561.820312 142.710938 561.863281 "/><g clip-rule="nonzero" clip-path="url(#d9ce1e4b47)"><path style=" stroke:none;fill-rule:nonzero;fill:#f36589;fill-opacity:1;" d="M 112.515625 497.925781 C 105.382812 502.152344 99.238281 505.070312 92.992188 508.117188 C 89.851562 509.605469 86.675781 511.09375 83.261719 512.570312 C 79.851562 514.03125 76.191406 515.5 72.113281 516.652344 C 71.421875 516.832031 70.625 517.101562 69.667969 517.273438 C 68.710938 517.472656 67.605469 517.726562 66.300781 517.855469 C 63.71875 518.160156 60.289062 518.382812 56.125 517.273438 C 55.753906 517.164062 55.332031 517.085938 54.910156 516.933594 C 54.496094 516.769531 54.050781 516.589844 53.589844 516.40625 C 52.628906 516.109375 51.710938 515.496094 50.691406 514.988281 C 50.175781 514.761719 49.726562 514.339844 49.230469 514.027344 C 48.753906 513.667969 48.230469 513.386719 47.769531 512.976562 C 47.3125 512.570312 46.851562 512.160156 46.402344 511.765625 L 45.714844 511.175781 L 45.097656 510.496094 C 43.414062 508.808594 42.109375 506.914062 41.109375 505.613281 C 40.261719 504.25 39.734375 503.402344 39.734375 503.402344 C 39.734375 503.402344 39.601562 503.226562 39.457031 502.894531 C 39.300781 502.566406 39.074219 502.09375 38.78125 501.511719 C 38.199219 500.34375 37.671875 498.722656 37.304688 497.035156 C 37.066406 495.351562 37.160156 493.699219 37.695312 492.253906 C 38.210938 490.804688 39.203125 489.480469 40.28125 488.425781 C 42.128906 486.683594 44.476562 485.382812 46.734375 484.480469 C 49.011719 483.578125 51.207031 483.015625 53.167969 482.671875 C 57.117188 482.03125 60.050781 482.15625 61.90625 482.371094 C 63.796875 482.582031 65.476562 482.96875 66.75 483.445312 C 68.015625 483.941406 68.71875 484.472656 69.027344 484.75 C 69.152344 484.820312 69.128906 484.90625 69.246094 484.964844 C 69.300781 484.957031 69.355469 485.113281 69.402344 485.257812 L 69.574219 485.671875 C 69.78125 486.210938 69.90625 486.683594 70.015625 487.136719 C 70.171875 487.996094 70.164062 488.71875 69.824219 489.675781 C 69.113281 491.582031 66.707031 493.761719 63.832031 495.480469 C 60.917969 497.234375 57.496094 498.804688 53.550781 500.0625 C 57.652344 500.796875 61.574219 500.984375 65.503906 500.53125 C 67.46875 500.285156 69.441406 499.847656 71.429688 499.054688 C 73.402344 498.246094 75.464844 497.097656 77.246094 495.128906 C 79.019531 493.203125 80.347656 490.382812 80.625 487.511719 C 80.75 486.09375 80.714844 484.679688 80.503906 483.335938 L 80.328125 482.351562 C 80.265625 482.019531 80.21875 481.703125 80.046875 481.253906 C 79.75 480.4375 79.476562 479.539062 79.027344 478.789062 C 77.277344 475.621094 74.503906 473.574219 71.824219 472.261719 C 69.101562 470.972656 66.296875 470.289062 63.402344 469.917969 C 60.546875 469.566406 56.445312 469.390625 51.054688 470.257812 C 48.363281 470.722656 45.34375 471.460938 42.035156 472.773438 C 38.738281 474.105469 35.078125 475.996094 31.53125 479.304688 C 29.449219 481.304688 27.113281 484.261719 25.800781 487.964844 C 24.429688 491.65625 24.304688 495.777344 24.855469 499.105469 C 25.503906 502.390625 26.511719 505.058594 27.371094 506.804688 C 27.8125 507.675781 28.160156 508.375 28.40625 508.863281 C 28.644531 509.355469 28.808594 509.582031 28.808594 509.582031 C 28.808594 509.582031 29.523438 510.753906 30.679688 512.632812 C 31.964844 514.378906 33.644531 516.828125 36.003906 519.238281 C 36.285156 519.546875 36.574219 519.855469 36.863281 520.167969 L 37.839844 521.042969 C 38.503906 521.625 39.171875 522.214844 39.839844 522.804688 C 40.511719 523.390625 41.300781 523.871094 42.027344 524.398438 C 42.785156 524.898438 43.460938 525.472656 44.261719 525.871094 C 45.835938 526.699219 47.300781 527.585938 48.804688 528.09375 C 49.539062 528.382812 50.242188 528.652344 50.90625 528.910156 C 51.578125 529.136719 52.226562 529.28125 52.816406 529.441406 C 59.382812 531.167969 64.347656 530.757812 67.898438 530.335938 C 69.707031 530.132812 71.164062 529.808594 72.421875 529.53125 C 73.699219 529.285156 74.699219 528.953125 75.585938 528.707031 C 80.78125 527.175781 85.007812 525.085938 88.664062 522.867188 C 92.320312 520.632812 95.40625 518.238281 98.195312 515.710938 C 103.722656 510.601562 108.183594 505.023438 112.515625 497.925781 "/></g><path style=" stroke:none;fill-rule:nonzero;fill:#8b9cd6;fill-opacity:1;" d="M 6.195312 539.664062 C 5.789062 539.296875 5.652344 539.144531 5.464844 538.296875 C 4.621094 535.554688 4.417969 531.609375 6.308594 528.765625 C 8.351562 526.066406 12.011719 524.550781 18.285156 524.660156 C 18.523438 524.660156 19.476562 524.800781 19.832031 525.007812 C 23.371094 528.292969 27.316406 531.226562 31.4375 533.75 C 35.582031 536.238281 39.941406 538.273438 44.4375 539.746094 C 48.433594 541.066406 52.527344 541.957031 56.671875 542.371094 C 60.816406 542.75 64.996094 542.644531 69.160156 542.160156 C 73.320312 541.601562 77.457031 540.589844 81.53125 539.234375 C 82.558594 538.925781 83.550781 538.460938 84.5625 538.082031 C 85.5625 537.664062 86.59375 537.355469 87.578125 536.851562 C 89.539062 535.859375 91.570312 535.074219 93.476562 533.914062 C 95.414062 532.832031 97.371094 531.796875 99.226562 530.515625 L 102.054688 528.703125 C 102.992188 528.074219 103.886719 527.371094 104.8125 526.710938 L 107.554688 524.707031 C 108.460938 524.023438 109.328125 523.257812 110.214844 522.542969 L 115.851562 517.914062 C 124.066406 511.113281 133.367188 505.183594 143.699219 501.070312 C 150.203125 498.546875 157.082031 496.8125 164.097656 495.996094 C 164.097656 495.996094 164.636719 495.964844 165.636719 495.910156 C 166.632812 495.808594 168.097656 495.890625 169.917969 495.898438 C 173.558594 495.925781 178.644531 496.398438 184.28125 497.617188 C 189.902344 498.824219 196.039062 500.882812 201.753906 503.660156 C 207.503906 506.410156 212.832031 509.832031 217.277344 513.328125 C 224.878906 519.125 228.824219 523.933594 230.738281 526.976562 C 232.625 530.078125 232.414062 531.464844 231.078125 531.445312 C 228.484375 531.558594 220.789062 526.742188 211.046875 522.511719 C 211.464844 522.898438 208.871094 521.613281 204.605469 519.953125 C 200.335938 518.289062 194.363281 516.40625 188.292969 515.414062 C 182.203125 514.414062 176.101562 514.410156 171.609375 514.863281 C 170.480469 515 169.46875 515.125 168.550781 515.238281 C 167.648438 515.355469 166.859375 515.558594 166.214844 515.664062 C 164.925781 515.917969 164.183594 516.054688 164.183594 516.054688 C 159.710938 516.808594 155.304688 518.015625 150.996094 519.644531 C 143.035156 522.816406 135.519531 527.542969 128.613281 533.265625 L 122.851562 538 C 121.828125 538.832031 120.839844 539.691406 119.78125 540.488281 L 116.574219 542.84375 C 115.5 543.621094 114.453125 544.433594 113.347656 545.171875 L 109.976562 547.351562 C 107.769531 548.851562 105.382812 550.148438 103.023438 551.457031 C 100.710938 552.839844 98.15625 553.894531 95.710938 555.09375 C 94.496094 555.703125 93.167969 556.140625 91.902344 556.664062 C 90.609375 557.148438 89.355469 557.714844 88.027344 558.121094 C 82.777344 559.894531 77.316406 561.230469 71.71875 561.976562 C 66.109375 562.648438 60.402344 562.789062 54.742188 562.273438 C 49.082031 561.714844 43.507812 560.5 38.160156 558.738281 C 26.078125 554.757812 15.339844 548.082031 6.195312 539.664062 "/><path style=" stroke:none;fill-rule:nonzero;fill:#8b9cd6;fill-opacity:1;" d="M 219.160156 546.316406 C 219.128906 546.277344 219.113281 546.265625 219.257812 546.058594 C 219.644531 545.429688 220.402344 544.382812 221.511719 543.1875 C 222.574219 541.972656 224.074219 540.644531 226.214844 539.785156 C 226.292969 539.753906 226.585938 539.664062 226.664062 539.683594 C 226.730469 539.761719 227.890625 541.046875 229.289062 543 C 230.707031 544.953125 232.382812 547.628906 233.816406 550.4375 C 235.265625 553.222656 236.34375 556.175781 237.097656 558.390625 C 237.4375 559.523438 237.710938 560.457031 237.90625 561.117188 C 238.082031 561.78125 238.164062 562.160156 238.164062 562.160156 C 238.164062 562.160156 238.164062 563.222656 238.015625 564.636719 C 237.808594 566.066406 237.519531 567.835938 236.890625 569.289062 C 235.214844 574.078125 232.800781 572.1875 231.382812 569.851562 C 231.320312 569.992188 230.625 568.527344 229.917969 567.109375 C 229.59375 566.386719 229.175781 565.695312 228.902344 565.167969 C 228.613281 564.648438 228.421875 564.296875 228.421875 564.296875 C 228.421875 564.296875 228.371094 563.988281 228.195312 563.460938 C 228.050781 562.933594 227.808594 562.171875 227.535156 561.261719 C 226.90625 559.472656 226.003906 557.09375 224.828125 554.820312 C 223.667969 552.546875 222.285156 550.378906 221.15625 548.828125 C 220.59375 548.054688 220.09375 547.429688 219.742188 547.007812 C 219.386719 546.59375 219.191406 546.34375 219.160156 546.316406 "/><path style=" stroke:none;fill-rule:nonzero;fill:#f36589;fill-opacity:1;" d="M 479.160156 495.1875 C 479.253906 494.78125 479.289062 494.636719 479.867188 494.1875 C 481.636719 492.613281 484.441406 490.589844 487.742188 490.164062 C 490.976562 489.585938 495.132812 490.816406 498.320312 497.464844 C 498.433594 497.707031 498.789062 498.835938 498.753906 499.375 C 497.417969 505.550781 495.40625 511.714844 491.960938 517.773438 C 490.238281 520.796875 488.0625 523.777344 485.308594 526.484375 C 482.554688 529.179688 479.207031 531.609375 475.390625 533.222656 C 470.253906 535.453125 464.570312 536.03125 459.59375 535.519531 C 454.585938 535.007812 450.058594 533.667969 445.9375 532.003906 C 443.910156 531.140625 441.929688 530.222656 440.011719 529.242188 C 438.191406 528.199219 436.261719 527.230469 434.539062 526.101562 C 432.832031 524.964844 431.011719 523.910156 429.402344 522.707031 C 427.804688 521.554688 426.210938 520.398438 424.601562 519.269531 C 420.238281 515.941406 415.617188 513.296875 410.945312 511.464844 C 410.945312 511.464844 410.59375 511.25 409.949219 511.003906 C 409.304688 510.746094 408.355469 510.308594 407.164062 509.832031 C 404.777344 508.984375 401.382812 507.949219 397.339844 507.671875 C 393.296875 507.371094 388.578125 507.847656 383.828125 509.511719 C 379.046875 511.066406 374.328125 513.757812 370.207031 516.601562 C 363.394531 521.695312 359.335938 525.933594 356.664062 528.113281 C 354.023438 530.335938 352.765625 530.738281 352.332031 529.429688 C 351.605469 526.753906 354.941406 517.355469 363.136719 508.050781 C 362.636719 508.4375 364.746094 505.832031 369 502.246094 C 373.203125 498.691406 379.933594 494.269531 387.984375 492.042969 C 395.988281 489.59375 404.8125 489.945312 410.945312 491.179688 C 412.523438 491.417969 413.894531 491.839844 415.117188 492.160156 C 416.339844 492.5 417.4375 492.765625 418.273438 493.089844 C 419.980469 493.707031 420.945312 494.050781 420.945312 494.050781 C 426.628906 496.589844 431.832031 499.742188 436.550781 503.269531 L 440.832031 506.359375 C 442.21875 507.394531 443.636719 508.183594 445.035156 509.121094 C 446.4375 510.058594 447.855469 510.71875 449.253906 511.546875 C 450.671875 512.261719 452.089844 512.914062 453.472656 513.519531 C 456.261719 514.636719 458.980469 515.355469 461.398438 515.617188 C 463.828125 515.867188 465.824219 515.570312 467.546875 514.824219 C 470.058594 513.71875 472.554688 511.414062 474.585938 507.796875 C 476.628906 504.242188 478.191406 499.804688 479.160156 495.1875 "/><path style=" stroke:none;fill-rule:nonzero;fill:#f36589;fill-opacity:1;" d="M 239.578125 507.101562 C 241.109375 511.910156 241.851562 514.628906 244.910156 516.230469 C 246.566406 517.078125 251.527344 519.761719 255.796875 522.707031 C 256.875 523.414062 257.90625 524.148438 258.824219 524.859375 C 259.757812 525.5625 260.640625 526.179688 261.351562 526.75 C 262.75 527.90625 263.667969 528.652344 263.667969 528.652344 C 263.667969 528.652344 267.292969 531.660156 270.835938 535.429688 C 272.671875 537.238281 274.363281 539.34375 275.859375 541.074219 C 277.324219 542.816406 278.386719 544.371094 279 545.085938 C 280.109375 546.417969 281.285156 547.238281 282.878906 547.761719 C 284.457031 548.277344 286.453125 548.496094 289 548.765625 C 289.902344 546.433594 290.464844 544.484375 290.578125 542.699219 C 290.675781 540.917969 290.320312 539.28125 289.144531 537.699219 C 288.515625 536.851562 287.324219 535.082031 285.664062 533.085938 C 283.976562 531.113281 282.042969 528.734375 279.949219 526.679688 C 275.90625 522.429688 271.785156 519.074219 271.785156 519.074219 C 271.785156 519.074219 270.753906 518.222656 269.175781 516.902344 C 268.371094 516.25 267.390625 515.539062 266.34375 514.742188 C 265.296875 513.933594 264.136719 513.097656 262.929688 512.285156 C 258.128906 508.941406 252.492188 505.894531 250.53125 505.015625 C 246.96875 503.371094 243.863281 504.378906 239.578125 507.101562 "/><path style=" stroke:none;fill-rule:nonzero;fill:#f36589;fill-opacity:1;" d="M 473.488281 558.621094 C 473.585938 558.644531 473.617188 558.648438 473.667969 558.90625 C 473.925781 559.6875 474.148438 561.023438 474.023438 562.648438 C 473.925781 564.277344 473.378906 566.210938 471.71875 568.058594 C 471.671875 568.125 471.398438 568.359375 471.285156 568.378906 C 471.140625 568.332031 468.433594 567.761719 464.699219 566.550781 C 460.929688 565.335938 456.066406 563.480469 451.445312 561.125 C 446.808594 558.789062 442.425781 555.992188 439.289062 553.703125 C 437.710938 552.546875 436.46875 551.492188 435.566406 550.792969 C 434.667969 550.097656 434.199219 549.644531 434.199219 549.644531 C 434.199219 549.644531 433.105469 548.300781 431.75 546.441406 C 431.027344 545.539062 430.414062 544.351562 429.738281 543.21875 C 429.109375 542.058594 428.433594 540.941406 428.03125 539.761719 C 426.421875 536.019531 426.648438 534.527344 427.660156 534.265625 C 428.691406 534.007812 430.542969 534.964844 432.378906 536.324219 C 432.265625 536.117188 434.425781 537.78125 436.582031 539.410156 C 437.660156 540.230469 438.851562 540.9375 439.691406 541.519531 C 440.542969 542.082031 441.105469 542.460938 441.105469 542.460938 C 441.105469 542.460938 441.558594 542.8125 442.316406 543.421875 C 443.105469 544.007812 444.132812 544.949219 445.535156 545.902344 C 448.257812 547.886719 452.105469 550.265625 456.164062 552.3125 C 460.238281 554.367188 464.535156 556.011719 467.839844 557.054688 C 471.140625 558.109375 473.378906 558.582031 473.488281 558.621094 "/><path style=" stroke:none;fill-rule:nonzero;fill:#f36589;fill-opacity:1;" d="M 710.445312 561.863281 C 710.363281 561.933594 710.332031 561.960938 709.898438 561.714844 C 708.578125 561.046875 706.320312 559.75 703.679688 557.867188 C 702.328125 556.960938 700.863281 555.894531 699.558594 554.429688 C 698.304688 552.890625 697.128906 551.113281 696.371094 548.753906 C 696.320312 548.589844 696.175781 547.925781 696.273438 547.730469 C 696.484375 547.535156 700.007812 543.828125 706.0625 540.300781 C 709.058594 538.492188 712.761719 536.820312 716.820312 535.464844 C 717.820312 535.074219 718.867188 534.8125 719.929688 534.5625 C 720.992188 534.304688 722.070312 534.039062 723.148438 533.78125 C 724.226562 533.480469 725.324219 533.363281 726.433594 533.21875 L 729.75 532.789062 C 730.300781 532.722656 730.863281 532.640625 731.410156 532.59375 L 733.035156 532.558594 C 734.132812 532.539062 735.226562 532.519531 736.304688 532.5 C 737.382812 532.507812 738.480469 532.421875 739.511719 532.519531 C 740.539062 532.613281 741.554688 532.703125 742.570312 532.796875 C 743.566406 532.890625 744.566406 532.992188 745.53125 533.078125 C 746.5 533.167969 747.449219 533.261719 748.320312 533.46875 C 750.105469 533.832031 751.78125 534.171875 753.34375 534.484375 C 756.484375 535.027344 758.867188 535.96875 760.621094 536.464844 C 762.34375 537.003906 763.328125 537.320312 763.328125 537.320312 C 763.328125 537.320312 763.921875 537.644531 764.921875 538.203125 C 765.902344 538.761719 767.175781 539.746094 768.65625 540.820312 C 770.121094 541.921875 771.75 543.183594 773.308594 544.519531 C 774.886719 545.828125 776.257812 547.484375 777.496094 548.941406 C 781.8125 553.605469 782.199219 556.265625 780.703125 557.664062 C 779.203125 559.058594 775.820312 559.210938 772.261719 558.6875 C 772.472656 559.089844 768.480469 557.820312 764.355469 557.230469 C 762.328125 556.859375 760.300781 556.484375 758.769531 556.203125 C 757.238281 556.0625 756.226562 555.96875 756.226562 555.96875 C 756.226562 555.96875 755.4375 555.722656 754.066406 555.296875 C 753.390625 555.082031 752.554688 554.824219 751.601562 554.523438 C 750.652344 554.222656 749.574219 554.089844 748.398438 553.828125 C 747.222656 553.589844 745.953125 553.324219 744.597656 553.050781 C 743.246094 552.859375 741.84375 552.785156 740.378906 552.628906 C 739.65625 552.558594 738.914062 552.484375 738.15625 552.414062 C 737.433594 552.425781 736.675781 552.445312 735.933594 552.464844 C 734.4375 552.527344 732.875 552.40625 731.410156 552.703125 C 725.386719 553.265625 719.847656 555.351562 716.128906 557.582031 C 715.679688 557.859375 715.226562 558.121094 714.808594 558.375 C 714.40625 558.65625 714.035156 558.925781 713.679688 559.175781 C 713.3125 559.433594 712.988281 559.667969 712.683594 559.886719 C 712.394531 560.125 712.136719 560.347656 711.910156 560.546875 C 710.910156 561.332031 710.523438 561.820312 710.445312 561.863281 "/><g clip-rule="nonzero" clip-path="url(#2af2bc5a88)"><path style=" stroke:none;fill-rule:nonzero;fill:#f36589;fill-opacity:1;" d="M 680.25 497.925781 C 673.117188 502.152344 666.964844 505.070312 660.71875 508.113281 C 657.59375 509.605469 654.40625 511.09375 650.992188 512.570312 C 647.578125 514.03125 643.921875 515.5 639.847656 516.652344 C 639.15625 516.832031 638.351562 517.101562 637.402344 517.273438 C 636.453125 517.472656 635.339844 517.726562 634.035156 517.851562 C 631.445312 518.160156 628.03125 518.382812 623.859375 517.273438 C 623.488281 517.164062 623.070312 517.085938 622.652344 516.933594 C 622.234375 516.769531 621.78125 516.589844 621.332031 516.40625 C 620.363281 516.109375 619.445312 515.496094 618.433594 514.988281 C 617.902344 514.761719 617.464844 514.339844 616.96875 514.027344 C 616.484375 513.667969 615.96875 513.386719 615.5 512.976562 C 615.050781 512.570312 614.582031 512.160156 614.132812 511.765625 L 613.457031 511.175781 L 612.84375 510.503906 C 611.152344 508.808594 609.847656 506.914062 608.851562 505.613281 C 607.996094 504.25 607.464844 503.402344 607.464844 503.402344 C 607.464844 503.402344 607.335938 503.226562 607.191406 502.894531 C 607.03125 502.566406 606.804688 502.09375 606.515625 501.511719 C 605.9375 500.34375 605.40625 498.722656 605.035156 497.035156 C 604.792969 495.351562 604.890625 493.699219 605.421875 492.253906 C 605.953125 490.804688 606.933594 489.480469 608.015625 488.425781 C 609.867188 486.683594 612.214844 485.382812 614.472656 484.480469 C 616.742188 483.578125 618.949219 483.015625 620.894531 482.671875 C 624.855469 482.03125 627.789062 482.15625 629.640625 482.371094 C 631.539062 482.582031 633.214844 482.96875 634.488281 483.445312 C 635.742188 483.941406 636.453125 484.472656 636.757812 484.75 C 636.886719 484.820312 636.855469 484.90625 636.984375 484.964844 C 637.03125 484.957031 637.078125 485.113281 637.144531 485.257812 L 637.304688 485.671875 C 637.515625 486.210938 637.644531 486.683594 637.753906 487.136719 C 637.902344 487.996094 637.902344 488.71875 637.5625 489.675781 C 636.855469 491.582031 634.4375 493.761719 631.574219 495.480469 C 628.65625 497.234375 625.226562 498.804688 621.28125 500.0625 C 625.390625 500.796875 629.300781 500.984375 633.230469 500.53125 C 635.195312 500.285156 637.175781 499.847656 639.15625 499.054688 C 641.136719 498.246094 643.199219 497.097656 644.984375 495.128906 C 646.757812 493.203125 648.078125 490.382812 648.351562 487.511719 C 648.480469 486.09375 648.449219 484.679688 648.238281 483.335938 L 648.0625 482.351562 C 647.996094 482.019531 647.949219 481.703125 647.789062 481.253906 C 647.480469 480.4375 647.207031 479.539062 646.757812 478.789062 C 645.019531 475.621094 642.230469 473.574219 639.558594 472.261719 C 636.835938 470.972656 634.035156 470.289062 631.136719 469.917969 C 628.289062 469.566406 624.179688 469.390625 618.785156 470.257812 C 616.097656 470.722656 613.070312 471.460938 609.769531 472.773438 C 606.46875 474.105469 602.8125 475.996094 599.269531 479.304688 C 597.175781 481.304688 594.839844 484.261719 593.519531 487.964844 C 592.167969 491.65625 592.039062 495.777344 592.585938 499.105469 C 593.230469 502.390625 594.246094 505.058594 595.097656 506.804688 C 595.550781 507.675781 595.902344 508.375 596.144531 508.863281 C 596.371094 509.355469 596.546875 509.582031 596.546875 509.582031 C 596.546875 509.582031 597.257812 510.753906 598.417969 512.632812 C 599.703125 514.382812 601.378906 516.828125 603.730469 519.238281 C 604.019531 519.546875 604.308594 519.855469 604.601562 520.167969 L 605.566406 521.046875 C 606.242188 521.625 606.902344 522.214844 607.578125 522.804688 C 608.238281 523.390625 609.027344 523.871094 609.769531 524.40625 C 610.507812 524.898438 611.203125 525.472656 612.007812 525.871094 C 613.570312 526.707031 615.035156 527.585938 616.53125 528.097656 C 617.273438 528.382812 617.980469 528.652344 618.640625 528.910156 C 619.316406 529.136719 619.960938 529.28125 620.558594 529.441406 C 627.113281 531.167969 632.085938 530.757812 635.628906 530.335938 C 637.433594 530.132812 638.898438 529.808594 640.15625 529.53125 C 641.425781 529.285156 642.441406 528.953125 643.328125 528.707031 C 648.511719 527.175781 652.746094 525.085938 656.402344 522.867188 C 660.058594 520.632812 663.148438 518.238281 665.9375 515.710938 C 671.460938 510.601562 675.917969 505.023438 680.25 497.925781 "/></g><path style=" stroke:none;fill-rule:nonzero;fill:#f36589;fill-opacity:1;" d="M 239.5 549.367188 C 239.433594 549.355469 239.402344 549.351562 239.371094 549.09375 C 239.226562 548.34375 239.082031 547.039062 239.210938 545.417969 C 239.289062 543.792969 239.722656 541.832031 241.125 539.90625 C 241.171875 539.835938 241.382812 539.589844 241.480469 539.566406 C 241.609375 539.589844 243.78125 540.019531 246.746094 540.941406 C 249.707031 541.851562 253.523438 543.308594 257.148438 545.074219 C 260.785156 546.800781 264.234375 548.871094 266.730469 550.523438 C 267.96875 551.371094 269.015625 552.058594 269.707031 552.570312 C 270.417969 553.097656 270.804688 553.398438 270.804688 553.398438 C 270.804688 553.398438 271.703125 554.378906 272.800781 555.800781 C 273.832031 557.285156 275.152344 559.101562 275.890625 560.898438 C 278.789062 566.535156 275.375 566.367188 272.074219 564.898438 C 272.089844 565.003906 271.65625 564.78125 270.980469 564.40625 C 270.273438 564.042969 269.335938 563.554688 268.386719 563.058594 C 267.453125 562.535156 266.472656 562.074219 265.746094 561.734375 C 265.023438 561.382812 264.539062 561.148438 264.539062 561.148438 C 264.539062 561.148438 264.183594 560.886719 263.574219 560.433594 C 262.945312 560.007812 262.042969 559.398438 260.964844 558.664062 C 258.773438 557.261719 255.796875 555.449219 252.621094 553.976562 C 249.484375 552.46875 246.214844 551.234375 243.734375 550.472656 C 242.492188 550.085938 241.449219 549.8125 240.707031 549.640625 C 239.964844 549.457031 239.546875 549.386719 239.5 549.367188 "/><path style=" stroke:none;fill-rule:nonzero;fill:#f36589;fill-opacity:1;" d="M 297.453125 498.84375 C 297.4375 498.734375 297.421875 498.699219 297.597656 498.488281 C 298.113281 497.804688 299.113281 496.828125 300.5625 496.070312 C 301.976562 495.273438 303.941406 494.761719 306.453125 495.398438 C 306.550781 495.425781 306.890625 495.5625 306.96875 495.664062 C 307.003906 495.835938 308.066406 498.875 309.078125 503.34375 C 310.109375 507.816406 311.078125 513.78125 311.480469 519.777344 C 311.945312 525.769531 311.640625 531.765625 311.316406 536.246094 C 311.078125 538.472656 310.867188 540.332031 310.722656 541.632812 C 310.546875 542.925781 310.382812 543.660156 310.382812 543.660156 C 310.382812 543.660156 309.804688 545.542969 308.917969 548.03125 C 308.417969 549.261719 307.792969 550.632812 307.148438 551.992188 C 306.503906 553.355469 305.84375 554.710938 305.039062 555.867188 C 300.304688 563.835938 299.351562 559.472656 299.773438 554.152344 C 299.660156 554.265625 299.789062 553.542969 299.886719 552.375 C 299.996094 551.207031 300.140625 549.605469 300.289062 548 C 300.496094 546.40625 300.480469 544.753906 300.546875 543.542969 C 300.59375 542.324219 300.640625 541.507812 300.640625 541.507812 C 300.640625 541.507812 300.65625 541.34375 300.722656 541.035156 C 300.785156 540.726562 300.835938 540.273438 300.898438 539.691406 C 301.027344 538.527344 301.207031 536.871094 301.429688 534.882812 C 301.671875 530.882812 301.898438 525.519531 301.480469 520.148438 C 301.109375 514.785156 300.222656 509.449219 299.304688 505.488281 C 298.839844 503.507812 298.402344 501.871094 298.050781 500.726562 C 297.726562 499.5625 297.484375 498.917969 297.453125 498.84375 "/><path style=" stroke:none;fill-rule:nonzero;fill:#8b9cd6;fill-opacity:1;" d="M 573.925781 539.664062 C 573.519531 539.296875 573.375 539.144531 573.199219 538.296875 C 572.363281 535.554688 572.152344 531.609375 574.054688 528.765625 C 576.082031 526.066406 579.753906 524.550781 586.015625 524.660156 C 586.257812 524.660156 587.207031 524.800781 587.578125 525.007812 C 591.105469 528.292969 595.050781 531.226562 599.171875 533.75 C 603.3125 536.238281 607.675781 538.273438 612.167969 539.746094 C 616.160156 541.066406 620.269531 541.957031 624.40625 542.371094 C 628.546875 542.75 632.730469 542.644531 636.886719 542.160156 C 641.058594 541.601562 645.195312 540.589844 649.269531 539.234375 C 650.285156 538.925781 651.28125 538.460938 652.296875 538.082031 C 653.296875 537.664062 654.324219 537.355469 655.308594 536.851562 C 657.273438 535.859375 659.300781 535.074219 661.21875 533.914062 C 663.148438 532.832031 665.097656 531.792969 666.964844 530.515625 L 669.785156 528.703125 C 670.734375 528.074219 671.621094 527.371094 672.539062 526.710938 L 675.292969 524.703125 C 676.195312 524.023438 677.0625 523.257812 677.949219 522.542969 L 683.585938 517.914062 C 691.796875 511.113281 701.105469 505.183594 711.425781 501.070312 C 717.933594 498.546875 724.824219 496.8125 731.828125 495.996094 C 731.828125 495.996094 732.375 495.964844 733.375 495.910156 C 734.375 495.808594 735.839844 495.890625 737.640625 495.898438 C 741.28125 495.925781 746.386719 496.398438 752.007812 497.617188 C 757.640625 498.824219 763.761719 500.882812 769.492188 503.660156 C 775.226562 506.410156 780.574219 509.832031 785 513.328125 C 792.617188 519.125 796.546875 523.933594 798.460938 526.976562 C 800.363281 530.078125 800.136719 531.464844 798.800781 531.445312 C 796.222656 531.558594 788.511719 526.742188 778.785156 522.511719 C 779.203125 522.898438 776.59375 521.613281 772.328125 519.953125 C 768.0625 518.289062 762.101562 516.40625 756.015625 515.414062 C 749.945312 514.414062 743.824219 514.410156 739.332031 514.863281 C 738.222656 515 737.191406 515.125 736.289062 515.238281 C 735.371094 515.355469 734.597656 515.558594 733.953125 515.664062 C 732.667969 515.917969 731.925781 516.054688 731.925781 516.054688 C 727.449219 516.808594 723.035156 518.015625 718.722656 519.644531 C 710.765625 522.816406 703.246094 527.542969 696.355469 533.265625 L 690.589844 538 C 689.558594 538.832031 688.578125 539.691406 687.515625 540.488281 L 684.308594 542.84375 C 683.230469 543.621094 682.183594 544.425781 681.089844 545.171875 L 677.707031 547.351562 C 675.5 548.851562 673.117188 550.148438 670.765625 551.457031 C 668.449219 552.839844 665.886719 553.894531 663.441406 555.09375 C 662.230469 555.703125 660.894531 556.136719 659.640625 556.664062 C 658.335938 557.148438 657.09375 557.714844 655.757812 558.121094 C 650.507812 559.894531 645.050781 561.230469 639.445312 561.976562 C 633.84375 562.648438 628.140625 562.789062 622.472656 562.273438 C 616.820312 561.714844 611.234375 560.5 605.886719 558.738281 C 593.8125 554.757812 583.070312 548.082031 573.925781 539.664062 "/><path style=" stroke:none;fill-rule:nonzero;fill:#8b9cd6;fill-opacity:1;" d="M 786.902344 546.316406 C 786.867188 546.277344 786.851562 546.265625 786.980469 546.058594 C 787.382812 545.429688 788.140625 544.382812 789.234375 543.1875 C 790.316406 541.972656 791.8125 540.644531 793.953125 539.785156 C 794.035156 539.753906 794.324219 539.664062 794.40625 539.683594 C 794.46875 539.761719 795.613281 541.046875 797.03125 543 C 798.445312 544.953125 800.121094 547.628906 801.539062 550.429688 C 803.003906 553.222656 804.082031 556.175781 804.839844 558.390625 C 805.175781 559.523438 805.453125 560.457031 805.644531 561.117188 C 805.804688 561.78125 805.902344 562.160156 805.902344 562.160156 C 805.902344 562.160156 805.886719 563.222656 805.757812 564.636719 C 805.546875 566.066406 805.257812 567.835938 804.613281 569.289062 C 802.9375 574.078125 800.539062 572.1875 799.105469 569.851562 C 799.042969 569.992188 798.367188 568.527344 797.65625 567.109375 C 797.335938 566.386719 796.917969 565.695312 796.628906 565.167969 C 796.351562 564.648438 796.160156 564.300781 796.160156 564.300781 C 796.160156 564.296875 796.113281 563.988281 795.933594 563.460938 C 795.773438 562.933594 795.546875 562.171875 795.273438 561.261719 C 794.628906 559.472656 793.746094 557.09375 792.570312 554.820312 C 791.394531 552.546875 790.023438 550.378906 788.882812 548.828125 C 788.335938 548.054688 787.835938 547.433594 787.480469 547.007812 C 787.125 546.59375 786.917969 546.34375 786.902344 546.316406 "/><path style=" stroke:none;fill-rule:nonzero;fill:#8b9cd6;fill-opacity:1;" d="M 493.28125 554.394531 C 498.335938 554.519531 501.15625 554.699219 503.667969 552.332031 C 505.019531 551.046875 509.15625 547.234375 513.34375 544.167969 C 514.359375 543.378906 515.390625 542.644531 516.371094 542.003906 C 517.339844 541.347656 518.207031 540.722656 518.980469 540.230469 C 520.542969 539.277344 521.542969 538.664062 521.542969 538.664062 C 521.542969 538.664062 525.566406 536.21875 530.285156 534.109375 C 532.605469 532.953125 535.148438 532.054688 537.273438 531.195312 C 539.398438 530.378906 541.21875 529.882812 542.089844 529.542969 C 543.714844 528.929688 544.875 528.085938 545.890625 526.753906 C 546.886719 525.421875 547.742188 523.621094 548.835938 521.292969 C 546.917969 519.703125 545.261719 518.523438 543.601562 517.84375 C 541.945312 517.160156 540.285156 516.964844 538.402344 517.554688 C 537.386719 517.882812 535.324219 518.433594 532.894531 519.34375 C 530.476562 520.300781 527.597656 521.347656 524.972656 522.660156 C 519.625 525.085938 515.101562 527.890625 515.117188 527.890625 C 515.117188 527.890625 513.957031 528.582031 512.203125 529.644531 C 511.332031 530.183594 510.332031 530.882812 509.238281 531.617188 C 508.128906 532.339844 506.953125 533.15625 505.792969 534.046875 C 501.074219 537.480469 496.339844 541.8125 494.875 543.371094 C 492.152344 546.210938 492.105469 549.46875 493.28125 554.394531 "/><path style=" stroke:none;fill-rule:nonzero;fill:#8b9cd6;fill-opacity:1;" d="M 533.296875 568.226562 C 533.25 568.28125 533.25 568.300781 532.992188 568.257812 C 532.234375 568.15625 530.945312 567.855469 529.464844 567.203125 C 527.949219 566.597656 526.226562 565.550781 524.859375 563.609375 C 524.808594 563.542969 524.648438 563.253906 524.648438 563.160156 C 524.714844 563.050781 525.824219 561.144531 527.675781 558.644531 C 529.496094 556.132812 532.121094 553.023438 534.972656 550.171875 C 537.789062 547.289062 540.882812 544.714844 543.246094 542.894531 C 544.457031 542.003906 545.4375 541.234375 546.164062 540.738281 C 546.886719 540.257812 547.304688 539.980469 547.304688 539.980469 C 547.304688 539.980469 548.515625 539.453125 550.21875 538.882812 C 551.976562 538.390625 554.117188 537.746094 556.050781 537.625 C 562.347656 536.734375 561.074219 539.898438 558.609375 542.535156 C 558.707031 542.542969 558.351562 542.878906 557.789062 543.410156 C 557.210938 543.949219 556.4375 544.683594 555.664062 545.417969 C 554.859375 546.128906 554.101562 546.894531 553.539062 547.480469 C 552.972656 548.042969 552.605469 548.425781 552.605469 548.425781 C 552.605469 548.425781 552.234375 548.671875 551.605469 549.097656 C 550.992188 549.550781 550.125 550.203125 549.078125 550.988281 C 547.03125 552.601562 544.359375 554.832031 541.925781 557.332031 C 539.480469 559.804688 537.242188 562.488281 535.726562 564.589844 C 534.953125 565.632812 534.34375 566.535156 533.941406 567.171875 C 533.523438 567.816406 533.328125 568.183594 533.296875 568.226562 "/><path style=" stroke:none;fill-rule:nonzero;fill:#8b9cd6;fill-opacity:1;" d="M 504.296875 497.0625 C 504.199219 497.058594 504.148438 497.058594 504.019531 496.8125 C 503.539062 496.109375 502.941406 494.847656 502.683594 493.242188 C 502.394531 491.632812 502.539062 489.617188 503.972656 487.457031 C 504.019531 487.382812 504.261719 487.097656 504.390625 487.0625 C 504.570312 487.066406 507.789062 487.0625 512.347656 487.5625 C 516.917969 488.039062 522.878906 489.078125 528.691406 490.648438 C 534.519531 492.15625 540.109375 494.394531 544.230469 496.148438 C 546.273438 497.117188 547.964844 497.914062 549.140625 498.472656 C 550.316406 499.070312 550.960938 499.445312 550.960938 499.445312 C 550.960938 499.445312 552.554688 500.613281 554.617188 502.257812 C 555.632812 503.132812 556.710938 504.167969 557.804688 505.214844 C 558.867188 506.269531 559.945312 507.339844 560.769531 508.476562 C 566.789062 515.539062 562.347656 515.019531 557.433594 512.890625 C 557.515625 513.027344 556.871094 512.675781 555.792969 512.191406 C 554.730469 511.714844 553.265625 511.058594 551.78125 510.390625 C 550.332031 509.679688 548.769531 509.152344 547.644531 508.695312 C 546.515625 508.25 545.742188 507.953125 545.742188 507.953125 C 545.742188 507.953125 545.597656 507.871094 545.324219 507.722656 C 545.050781 507.566406 544.632812 507.363281 544.117188 507.117188 C 543.054688 506.617188 541.542969 505.90625 539.722656 505.050781 C 536.019531 503.519531 531.007812 501.554688 525.792969 500.207031 C 520.589844 498.816406 515.246094 497.90625 511.203125 497.492188 C 509.175781 497.277344 507.484375 497.164062 506.277344 497.121094 C 505.066406 497.058594 504.375 497.070312 504.296875 497.0625 "/><g clip-rule="nonzero" clip-path="url(#f90135458a)"><path style=" stroke:none;fill-rule:nonzero;fill:#8b9cd6;fill-opacity:1;" d="M 364.394531 492.054688 C 360.238281 491.714844 356.339844 491.851562 352.558594 492.292969 C 348.773438 492.746094 345.117188 493.574219 341.429688 494.949219 C 337.757812 496.34375 334.039062 498.28125 330.449219 501.324219 C 330.011719 501.707031 329.546875 502.089844 329.113281 502.496094 C 328.691406 502.9375 328.257812 503.375 327.824219 503.828125 C 326.9375 504.699219 326.164062 505.757812 325.359375 506.8125 C 324.554688 507.871094 323.894531 509.109375 323.167969 510.320312 C 322.589844 511.628906 321.882812 512.929688 321.445312 514.382812 C 321.1875 515.363281 320.707031 516.480469 320.496094 517.871094 C 320.367188 518.566406 320.238281 519.3125 320.09375 520.128906 C 319.933594 520.945312 319.933594 521.824219 319.851562 522.78125 C 319.644531 526.578125 320.011719 531.597656 321.945312 537.570312 C 323.347656 542.097656 326.019531 547.660156 329.417969 553.136719 C 331.074219 555.828125 333.058594 558.773438 335.34375 561.414062 L 337.050781 563.398438 C 337.664062 564.019531 338.273438 564.636719 338.886719 565.25 C 340.078125 566.507812 341.382812 567.609375 342.671875 568.691406 C 347.824219 573.003906 353.296875 575.90625 357.40625 577.566406 C 359.449219 578.410156 361.171875 578.957031 362.347656 579.359375 C 363.539062 579.699219 364.199219 579.886719 364.199219 579.886719 C 364.199219 579.886719 364.761719 580.046875 365.777344 580.328125 C 366.792969 580.558594 368.273438 580.898438 370.125 581.25 C 373.84375 581.898438 379.109375 582.410156 385.019531 581.964844 C 390.898438 581.445312 397.46875 580.09375 403.441406 577.101562 C 406.4375 575.675781 409.289062 573.816406 411.75 571.613281 C 413.007812 570.570312 414.085938 569.300781 415.148438 568.121094 C 416.097656 566.800781 417.082031 565.589844 417.773438 564.207031 C 420.171875 559.910156 421.011719 555.171875 420.753906 551.195312 C 420.496094 547.164062 419.546875 543.929688 418.175781 541.0625 C 416.757812 538.203125 414.957031 535.890625 413.121094 534.246094 C 411.300781 532.574219 409.546875 531.515625 408.097656 530.785156 C 405.148438 529.292969 402.234375 528.609375 399.546875 528.300781 C 396.839844 528.015625 394.328125 528.105469 392.007812 528.429688 C 387.355469 529.089844 383.378906 530.550781 379.820312 532.539062 C 378.03125 533.539062 376.359375 534.699219 374.8125 536.054688 C 373.265625 537.457031 371.769531 538.976562 370.640625 541.171875 C 370.109375 542.265625 369.640625 543.652344 369.835938 545.226562 C 370.046875 546.835938 371.125 548.113281 372.171875 548.671875 C 374.296875 549.851562 376.359375 549.851562 378.433594 549.839844 C 376.613281 548.933594 374.828125 547.824219 374.054688 546.554688 C 373.652344 545.921875 373.765625 545.4375 373.957031 545.207031 C 374.183594 544.929688 374.503906 544.597656 374.988281 544.230469 C 377.082031 542.742188 380.238281 541.738281 383.265625 541.074219 C 386.355469 540.402344 389.59375 540.003906 392.910156 540.023438 C 396.195312 540.050781 399.640625 540.519531 402.378906 541.953125 C 403.730469 542.6875 405.457031 543.785156 406.808594 546.542969 C 407.128906 547.25 407.453125 548.042969 407.695312 548.992188 C 407.824219 549.449219 407.871094 549.921875 407.984375 550.40625 C 408.113281 550.894531 408.128906 551.378906 408.144531 551.875 C 408.257812 553.859375 407.886719 555.9375 406.695312 558.097656 C 406.390625 558.789062 405.808594 559.429688 405.328125 560.152344 C 404.699219 560.804688 404.136719 561.53125 403.328125 562.171875 C 401.847656 563.511719 399.980469 564.765625 397.855469 565.765625 C 393.683594 567.898438 388.59375 568.988281 384.007812 569.40625 C 379.386719 569.765625 375.214844 569.382812 372.265625 568.871094 C 370.800781 568.597656 369.625 568.332031 368.820312 568.15625 C 368.015625 567.933594 367.582031 567.8125 367.582031 567.8125 C 367.582031 567.8125 367.066406 567.660156 366.117188 567.390625 C 365.199219 567.0625 363.84375 566.636719 362.234375 565.960938 C 359.015625 564.652344 354.746094 562.375 350.738281 559 C 349.738281 558.148438 348.707031 557.300781 347.789062 556.300781 L 346.339844 554.855469 L 345.019531 553.285156 C 343.21875 551.195312 341.6875 548.929688 340.175781 546.488281 C 337.210938 541.71875 335.039062 537.136719 333.976562 533.710938 C 332.507812 529.160156 332.332031 525.859375 332.445312 523.46875 C 332.523438 521.054688 333.023438 519.535156 333.363281 518.363281 C 334.410156 514.945312 336.375 512.199219 338.515625 509.699219 C 340.707031 507.21875 343.183594 505.066406 345.808594 503.050781 C 348.433594 501.039062 351.203125 499.148438 354.25 497.328125 C 357.308594 495.515625 360.578125 493.6875 364.394531 492.054688 "/></g></g></svg>