<svg xmlns="http://www.w3.org/2000/svg" xmlns:xlink="http://www.w3.org/1999/xlink" width="3035" zoomAndPan="magnify" viewBox="0 0 2276.25 2818.499955" height="3758" preserveAspectRatio="xMidYMid meet" version="1.2"><defs><clipPath id="d84679f702"><path d="M 8.664062 118 L 2266.921875 118 L 2266.921875 2055 L 8.664062 2055 Z M 8.664062 118 "/></clipPath></defs><g id="acf4a438ed"><g clip-rule="nonzero" clip-path="url(#d84679f702)"><path style=" stroke:none;fill-rule:nonzero;fill:#ffffff;fill-opacity:1;" d="M 2024.882812 602.511719 L 1782.933594 602.511719 L 1782.933594 199.269531 C 1782.933594 154.667969 1746.804688 118.617188 1702.285156 118.617188 L 573.207031 118.617188 C 528.6875 118.617188 492.558594 154.667969 492.558594 199.269531 L 492.558594 602.511719 L 250.609375 602.511719 C 117.21875 602.511719 8.664062 711.0625 8.664062 844.457031 L 8.664062 1812.242188 C 8.664062 1945.632812 117.21875 2054.1875 250.609375 2054.1875 L 331.257812 2054.1875 L 331.257812 1892.890625 L 250.609375 1892.890625 C 206.171875 1892.890625 169.960938 1856.757812 169.960938 1812.242188 L 169.960938 844.457031 C 169.960938 799.9375 206.171875 763.808594 250.609375 763.808594 L 2024.882812 763.808594 C 2069.320312 763.808594 2105.53125 799.9375 2105.53125 844.457031 L 2105.53125 1812.242188 C 2105.53125 1856.757812 2069.320312 1892.890625 2024.882812 1892.890625 L 1944.230469 1892.890625 L 1944.230469 2054.1875 L 2024.882812 2054.1875 C 2158.273438 2054.1875 2266.828125 1945.632812 2266.828125 1812.242188 L 2266.828125 844.457031 C 2266.828125 711.0625 2158.273438 602.511719 2024.882812 602.511719 Z M 653.855469 602.511719 L 653.855469 279.917969 L 1621.636719 279.917969 L 1621.636719 602.511719 Z M 653.855469 602.511719 "/></g><path style=" stroke:none;fill-rule:nonzero;fill:#ffffff;fill-opacity:1;" d="M 1944.230469 1731.59375 L 1944.230469 1570.292969 L 331.257812 1570.292969 L 331.257812 1731.59375 L 492.558594 1731.59375 L 492.558594 2618.726562 C 492.558594 2663.324219 528.6875 2699.375 573.207031 2699.375 L 1702.285156 2699.375 C 1746.804688 2699.375 1782.933594 2663.324219 1782.933594 2618.726562 L 1782.933594 1731.59375 Z M 1621.636719 2538.078125 L 653.855469 2538.078125 L 653.855469 1731.59375 L 1621.636719 1731.59375 Z M 1621.636719 2538.078125 "/><path style=" stroke:none;fill-rule:nonzero;fill:#ffffff;fill-opacity:1;" d="M 1782.933594 925.105469 L 1944.230469 925.105469 L 1944.230469 1086.402344 L 1782.933594 1086.402344 Z M 1782.933594 925.105469 "/><path style=" stroke:none;fill-rule:nonzero;fill:#ffffff;fill-opacity:1;" d="M 815.152344 1892.890625 L 1460.339844 1892.890625 L 1460.339844 2054.1875 L 815.152344 2054.1875 Z M 815.152344 1892.890625 "/><path style=" stroke:none;fill-rule:nonzero;fill:#ffffff;fill-opacity:1;" d="M 815.152344 2215.484375 L 1460.339844 2215.484375 L 1460.339844 2376.78125 L 815.152344 2376.78125 Z M 815.152344 2215.484375 "/></g></svg>