<svg xmlns="http://www.w3.org/2000/svg" xmlns:xlink="http://www.w3.org/1999/xlink" width="3035" zoomAndPan="magnify" viewBox="0 0 2276.25 2818.499955" height="3758" preserveAspectRatio="xMidYMid meet" version="1.2"><defs><clipPath id="07fd604eca"><path d="M 0 107.085938 L 2275 107.085938 L 2275 2788 L 0 2788 Z M 0 107.085938 "/></clipPath></defs><g id="6e1353c674"><g clip-rule="nonzero" clip-path="url(#07fd604eca)"><path style=" stroke:none;fill-rule:nonzero;fill:#ffffff;fill-opacity:1;" d="M 2045.007812 107.085938 L 230.492188 107.085938 C 103.898438 107.085938 0.65625 210.324219 0.65625 336.921875 L 0.65625 2575.875 C 0.65625 2654.945312 44.082031 2726.640625 114.140625 2763.101562 C 144.867188 2779.078125 178.460938 2787.273438 211.648438 2787.273438 C 254.253906 2787.273438 296.453125 2774.574219 332.503906 2749.171875 L 1137.546875 2186.257812 L 1942.585938 2749.171875 C 2007.316406 2794.238281 2090.894531 2799.972656 2161.359375 2763.511719 C 2231.417969 2727.050781 2274.84375 2655.355469 2274.84375 2576.285156 L 2274.84375 336.921875 C 2274.84375 210.324219 2172.011719 107.085938 2045.007812 107.085938 Z M 2121.210938 2575.875 C 2121.210938 2607.011719 2099.496094 2621.757812 2090.484375 2626.675781 C 2081.058594 2631.589844 2056.890625 2640.605469 2031.078125 2622.988281 L 1181.792969 2029.347656 C 1155.160156 2010.910156 1119.929688 2010.910156 1093.707031 2029.347656 L 244.832031 2622.578125 C 219.019531 2640.605469 194.847656 2631.183594 185.425781 2626.265625 C 176.003906 2621.347656 154.699219 2607.011719 154.699219 2575.464844 L 154.699219 336.921875 C 154.699219 295.132812 188.703125 261.128906 230.492188 261.128906 L 2045.007812 261.128906 C 2086.796875 261.128906 2120.800781 295.132812 2120.800781 336.921875 L 2120.800781 2575.875 Z M 2121.210938 2575.875 "/></g></g></svg>